<svg xmlns="http://www.w3.org/2000/svg" viewBox="0 0 388.17 236.34"><defs><style>.cls-1{fill:#e5bc65;}.cls-2{fill:#1c3462;}.cls-3{fill:#2d2b6e;}</style></defs><title>Asset 1</title><g id="Layer_2" data-name="Layer 2"><g id="Layer_1-2" data-name="Layer 1"><path class="cls-1" d="M386.81,175.23c.42-.08,1-.58,1.36-.21a3.24,3.24,0,0,1-1.21,1.89c-.28.18-.68.16-1,.34-.57.34-.82,1.1-1.3,1.64a18.2,18.2,0,0,1-1.54,1.41c-.46.42-1.1,1.24-1.75.75,0-1,.85-1.05,1-1.87-.06-.58-.51-.61-.55-1.21.91-1.11,2.41-2,2.45-4.12,0-.94-.81-2.88.16-3,1.14-.21.62,1.29.77,2,.06.3.34.48.51.88.31.71.35,1.38,1.09,1.51Z"></path><path class="cls-1" d="M380.29,180.9c-.28,1.44-2,2.33-3,3.32-.33.31-.56,1-1,1.19s-1.18.29-1.75.67a24,24,0,0,0-2.32,2.41,7.23,7.23,0,0,1-2.88,1.87c-1.06.2-3.1-.42-1.9-1.68a18.43,18.43,0,0,1,2.25-1.64c1.93-1.39,4.74-2.46,6.31-4,.88-.9,1.67-1.84,2.52-2.6.42-.38,1.27.46,1.79.51Z"></path><path class="cls-1" d="M362.65,126c.23-.09.24.11.38.13,0,1.21-.52,2-1.85,2-.59,0-1.67-.42-1.74-.76-.26-1.19,2.61-.71,3.21-1.4Z"></path><path class="cls-1" d="M359.65,132c.54.13,3,1.82,2.36,2.74-.36.51-.95-.16-1.62-.27-.91-.14-1.56.19-2.21-.3s-1-1.91-1.84-2.62a3,3,0,0,0-2.09-.65c-1.13.24-1,1.77-1.95,2.54-1,0-1.54.36-2.31.13s-1.31-1.38-2-1.42-2.34,1.6-2.73.34c-.31-1,1.08-1.5,1.1-2.22a3.66,3.66,0,0,0-1.06-2.1c-.33-.29-.76-.27-1.14-.48s-.72-.69-1.17-.91c-1.59-.78-3.86-.19-4.58-1.61-.13-.25,0-.55-.16-.91s-.79-.54-1-.92c-.61-1-.39-2.52.47-2.75a3.19,3.19,0,0,1,2.67,1.45c.13.34,0,.76.11,1.17s.88,1.64,1.46,1.64c.75,0,1.07-1.38,1.71-1.93a3.15,3.15,0,0,1,1.81-.85c.62,0,1.08.52,1.81.76.53.18,1.16.21,1.78.35s1,.44,1.58.61c1.78.57,3.86.8,4.91,2,.28.33.32.85.69,1.21s2,.52,2.16,1.32c.09.61-.63.71-.61,1.32.05,1.23,1.51,1,1.89,2.36Z"></path><path class="cls-1" d="M349.09,183.61a5.47,5.47,0,0,1-1.53,3.1c-.6.59-2.57,1.84-2.95.36a11.79,11.79,0,0,1,.32-2.82c.4-1.22,1-.51,1.85-.43s1.58-.74,2.31-.21Z"></path><path class="cls-1" d="M332.22,62.26c.39,1,.68,1.95,1,2.87-.69,1.22-2.3.94-3.41,1.67-.52.34-.57,1.41-1.09,1.62s-.79-.36-1.19-.31c-1,.11-1.35,2.15-2.67,1.76-.68.57.26,2.44-.62,2.68-.62.18-1.06-.75-1.5-1.3s-1.23-1-1.31-1.57.89-1.69,1.19-2.13,1.07-1.58,1.58-1.76c.93-.33,1.94-.07,2.64-.49s.53-1.53.84-1.86.61-.23.84-.41a3.31,3.31,0,0,0,.7-3.45c-.33-.91-1.76-1.81-1-3a4.22,4.22,0,0,1,3.46,2.81c.13.57-.09,1.17,0,1.77a9.26,9.26,0,0,0,.54,1.13Z"></path><path class="cls-1" d="M331.67,53.1c-.12.44-.46.38-.74.66s-.55,1.07-.9,1.18c-.57.18-1.29-.54-1.85-.33s-.21.81-.37,1.55a2.3,2.3,0,0,1-1.74-1.53c-.06-.48.45-.82.53-1.4.12-1-.47-1.41-.87-2.29,0-.13.06-.15,0-.25.69-.24,2.21,1.17,3.83,1.33,1,.1,1.89-.08,2.06,1.08Z"></path><path class="cls-1" d="M336.86,138.42c.13.69-.92.7-1.07.26s.89-.79,1.07-.26Z"></path><path class="cls-1" d="M323.31,46.77c.76.37,2.58,1.21,1.44,2.24a2.21,2.21,0,0,1-1.44-2.24Z"></path><path class="cls-1" d="M328.16,135.5c.78-.59,1.57-1.83,3.07-1.38-.22,1.07-1.31,1.15-2,1.7s-1.16,1.45-2,1.62a.74.74,0,0,0-.32-.31c-.09-.93.69-1.22,1.23-1.63Z"></path><path class="cls-1" d="M324.76,119.92c.85-.07,1.62-.45,2.24-.12.08,2.11-2.86.77-4.67,1.28-.39.11-.47.47-.92.33a1.69,1.69,0,0,1,1.23-1.63c.52-.11,1.35.21,2.12.14Z"></path><path class="cls-1" d="M325.72,122.45c.19,1.16-1.16,1.41-1.45,2.34.69,1,1.06,2.48,1.83,3.38,0,.64.25,1.46-.05,1.78-1.42.46-2.48-2.51-3.16-3.51-1.08.34.31,4.37-1.23,4-.75-.19-.12-1.43-.36-2.33s-.9-.9-1-1.52.39-1.11.5-1.65c.16-.78-.12-2.23.66-2.34.38-.06,1,.86,1.24.89.88.14,1.79-1.19,3-1Z"></path><path class="cls-1" d="M324.21,135.19c-.21.66-1.72.49-1.9-.08.2-.68,1.71-.62,1.9.08Z"></path><path class="cls-1" d="M323,137.33a1.78,1.78,0,0,1-.25.36c-.57-.15-1.16-.25-1.39-.89.34-.72,1.55-.26,1.64.53Z"></path><path class="cls-1" d="M320.89,135.41c-.31.64-1.64.1-2,.78-.75.05-1.5.11-1.72-.6.16-.64.88-.28,1.41-.39.87-.17,2-1,2.35.21Z"></path><path class="cls-1" d="M313.7,168.45a22.15,22.15,0,0,0-.71-2.13c-.06-.28,0-.66-.09-1a9,9,0,0,1-.34-1.24c.05-.56.6-.67.7-1.16.15-.8-.36-.88-.46-1.82-.07-.66.34-1,.55-1.91.1-.41,0-1.15.15-1.45s.93-.75,1.22-.95c1-.74,1.83-2,2.92-2.3.27-.08.66,0,.86-.08.64-.2,1.4-.91,2.28-1.23a7.17,7.17,0,0,0,2.26-.8,6.74,6.74,0,0,0,1.78-2.7c.24-.95.07-1.72.68-2.09.29-.18.61,0,.93-.17a4.19,4.19,0,0,0,1.22-.87c.46-.57.46-1.44,1-2a10.49,10.49,0,0,1,1.54-1.41,2.67,2.67,0,0,1,1.12-.44c1,0,1.65,1.61,2.72,1.19.39-.16.7-1.17,1-1.79.44-.9.71-2.09,1.59-2.43.71-.27,1.58.19,1.91-.59,0-.54-.42-.82-.11-1.18.85,0,2.39,1.17,3.66,1.1.69,0,1.87-1,2.12.14.11.53-.42,1-.51,1.57-.06.4.2.58,0,1-.56.32-1.17.52-1.11,1.28.06,1,1.29,1.3,2,1.76.53.31,1,.82,1.26,1s.59.17.75.27c.5.31.91,1.08,1.55,1s1.36-1.2,1.68-2.27a19.14,19.14,0,0,0,.35-4c0-.44.26-.87.32-1.3.17-1.17.41-2.76,1.23-3.24a7.6,7.6,0,0,1,1.46,4.77c.62.45,1.61.19,1.86,1.35.09.4-.09.93,0,1.35.12.7.62,1.28.76,1.87.24,1.11,0,2.06.55,2.83.65,1,1.75.83,2.57,1.88a4.71,4.71,0,0,0,.49,1.47c.1.25.07.67.15.83.29.54.92.54,1.19,1,.13.22.14.66.31,1.07a10.47,10.47,0,0,0,1.16,1.58,8.34,8.34,0,0,1,1.1,1.59c.22.82-.25,1.45-.32,2.14a18.75,18.75,0,0,1,0,2.8,31.94,31.94,0,0,1-1.5,3.43,11.2,11.2,0,0,1-1.74,3.12c-.42.47-.94.76-1.34,1.23a22.62,22.62,0,0,0-1.67,2.43c-.57.86-1.3,1.54-1.75,2.27-.65,1.07-.86,2.71-2.12,3a6.59,6.59,0,0,0-2.06.53c-1,.59-1.64,1.56-2.17,1.64s-1.14-.67-1.66-.7-1,.61-1.83.68c-.34,0-.53-.19-1-.33-1.07-.28-2.2-.16-2.46-1.46-.15-.71.29-1.07.2-1.71s-.64-.75-.91-1.27a1.56,1.56,0,0,0-.52-1.64,1.85,1.85,0,0,1,.18-1.2,8.39,8.39,0,0,0-1.38.8c-.49.42-.79,1.3-1.41,1.23s-.21-.88-.35-1.4A7.65,7.65,0,0,0,336,171a9.67,9.67,0,0,0-2.54-.87c-2.27-.2-3.56,1.32-5.3,1.68-.45.09-.95,0-1.37.12a9.56,9.56,0,0,0-3.73,2.88c-1.47.31-3-.07-4.52.59s-2.21,2.22-4.6,2c-.51-.42-1.36-.58-1.44-1.39-.06-.64.72-1.13.94-1.61a6.52,6.52,0,0,0,.58-2.42c0-.56-.44-1.19-.47-1.9,0-.55.19-1.16.14-1.7Z"></path><path class="cls-1" d="M309.25,133.61c.38-.1.64-.46,1-.51.83-.12,1.74.56,2.71.33.25.25.12.49.17.92.89.45,2.26.22,2.79,1.18-.56.83-1.55.36-2.37.3s-1.52.08-2.32,0c-1,0-2-.61-3-.66-.6,0-1.18.21-1.73.16s-3.17-.89-3.28-1.64,1-1.09,2-1c1.31.07,2.3,1.32,3.94.9Z"></path><path class="cls-1" d="M310.65,127.65c-.56-.13-1.06,0-1.31-.13-.53-.31-.55-1.32-.76-1.88s-.83-.81-1.23-1.57c-.58-1.1-1-3.64.21-4,.49-.14,1.05.26,1.39.13.68-.26.46-1.3,1-1.79.3-.27.9-.22,1.34-.46a3.29,3.29,0,0,0,1-1.27,6.67,6.67,0,0,1,.81-1.52c.41-.38.83-.43,1.16-.78.87-.93.79-2.1,1.45-3.18.56-.91,1.73.67,1.87,1.35.4.5,1.12.57,1.48,1.13-.29,1.52-1.47,1.76-1,3.82a6.75,6.75,0,0,0,.57,1.38c.25.48.91,1,.91,1.27,0,.63-1.07.7-1.25,1.38s.08.65.08,1.6c-.25.71-1,1-1.22,1.81-.21,1,.26,2.28-.37,3.07-.48,0-1,.58-1.54.57s-1.34-1-2.34-.89c-.38,0-.81.36-1.2.37s-.59-.31-1.06-.41Z"></path><path class="cls-1" d="M305.82,126.21c1.84-.16,2.14,3.14.31,3.31s-2.14-3.14-.31-3.31Z"></path><path class="cls-1" d="M303.1,126.06a3.55,3.55,0,0,1,1.16,1.59c0,.59-.73.63-.88,1.43-.23,1.24.39,2.56-.14,3.23-.3.26-.9.24-1.42.3a22.77,22.77,0,0,1-3.81-3.46,8.81,8.81,0,0,1-1.29-1.4c-.45-.76-.66-1.63-1.16-2.34s-1.18-1-1.61-1.71-.46-1.33-.83-1.87-.87-.68-1.26-1.07-.42-.67-.67-1c-1-1.18-2.82-1.68-3.08-3.52.32-.53.77.11,1.47.2.46.06,1-.13,1.3,0,.68.19,1.24,1.34,2,1.92.42.33.95.54,1.38.89s.84,1,1.2,1.16,1.17.45,1.83.85c.88.53,2.43,1,2.75,2.28.08.31-.05.85,0,1.09.14.43.63.58.95.93s.54,1.12,1.05,1.17.47-.72,1-.69Z"></path><path class="cls-1" d="M267.48,111.6c.64.18,3,2.91,2.53,4.58a1.58,1.58,0,0,1-1.5,1.07c-1.45-.13-1.52-3.85-1.22-5.38a.42.42,0,0,1,.19-.27Z"></path><path class="cls-1" d="M223.5,158.43a4.1,4.1,0,0,1,.74-2.27c.61-.63,1.51-.66,2.15-1.13a5.71,5.71,0,0,0,1.58-1.66c.31-.56.27-1.16.52-1.57s.59-.4.8-.75.08-.86.39-1.22c1-.59,1.44,1.52,1.73,3a9.88,9.88,0,0,1,.32,1.15c0,.68-.66.87-.82,1.35a15.2,15.2,0,0,1-.77,5c-.35,1.35-.5,2.8-.79,4-.11.43-.38.77-.48,1.15-.38,1.47-.37,3.73-1.26,4.42a6.81,6.81,0,0,1-2,.78,2.16,2.16,0,0,1-2-1.51c-.16-.46-.09-1-.21-1.5a8.12,8.12,0,0,1-.55-2c0-1.72,1.36-2.68,1.3-4.09,0-1.06-.66-2.07-.66-3.15Z"></path><path class="cls-1" d="M228.05,28.26c1.74.3,2.33-2,1.09-3.15-.29-.26-1.18-.3-1.61-.94s-.55-1.88-1.59-1.55c0,.1,0,.24-.05.26.07,1.84,2.4,2.09,2.5,3.57.06.78-.64.92-.34,1.81Zm29.44-13.12A2.61,2.61,0,0,0,256,16c-.25.19-.8.34-.58.82.69-.17,2-.66,2.1-1.64Zm21.56,27.35a3.38,3.38,0,0,0-1-2.79c-.81.25-.12,1.2-.12,1.79,0,.84-.71,1.49-.59,2.34-.24.4-.7.59-.68,1.24.49.33.63-.35.95-.76.49-.65,1.3-1.09,1.43-1.82Zm-75,35.74c-.05-.9-.44-1.55-.63-2.81-1.41-.81-2.24,1.08-3.61,1-.84,0-1.54-1.11-2.4-.87-.48.13-.65.88-1.14,1-1,.32-1.59-.82-2.64-.26-1.67-1.22-2.56-3.39-3.16-5.88-1-1.2-2.14,0-2.68.84-.38,0-.87-.17-.91.34-.14,1.57,2,1.54,2.12,2.59.06.69-.78.7-1.12,1.2s0,1-.53,1.32c-1.4.33-2-.53-2.08-2-.71-1-1.56-1.74-2.2-2.58a3.78,3.78,0,0,1-.7-1.29,12.64,12.64,0,0,0-.05-1.35c-.23-.78-1.56-1.27-2.4-1.64a12.87,12.87,0,0,1-2.66-1.27c-.47-.38-.73-1.09-1.14-1.33s-.74-.12-1.05-.33-.41-.83-.95-.93c-.28-.09-.66.38-.81.67-.19,1.86,1.1,1.87,1.76,2.63.46.52.73,1.33,1.17,1.66s1.06.23,1.64.44c.41.15.71.69,1.1.92.74.42,1.85.4,2,1.33-.4.38-1.45-.36-1.7.5,0,.55.45.79.48,1.3.06.83-.64,1.81-1.36,1.74-.12-.49.29-.93.23-1.46-.13-1.07-2.13-2.52-3.11-2.93-.46-.19-1-.15-1.41-.37a11,11,0,0,1-2.59-2.05c-.59-.74-1.16-2.17-2.29-2-.46.07-.79.6-1.15.86a11.37,11.37,0,0,0-1,.77c-.39.37-.7.72-1.09.78-.9.13-1.74-.63-2.5-.36-.26.09-.45.38-.73.74a12.71,12.71,0,0,1,.19,1.34c-.19.49-.89.53-1.37.89a10.37,10.37,0,0,0-1.82,2.28,2.91,2.91,0,0,0-.69,1.24c0,.28.28.79.26,1.16a4,4,0,0,1-1,1.7c-.24.23-.57.29-.82.5-.54.44-.74,1-1.21,1.13-1.23.38-3.57,0-3.41,1.58.11,1,1.31.93,2,.82a18.57,18.57,0,0,0,2.45-.14c.38-.15.76-.69,1.15-1,.24-.16.51-.18.7-.32.4-.29.61-.72.93-.93a8,8,0,0,1,2.53-.91c1-.15,2-.06,3.24-.3.44-.08.85-.45,1.33-.54.78-.15,1.85.19,2.48.11.43-.06.88-.6,1.39-.64a1.47,1.47,0,0,1,1.38.81c.09.23-.06.64,0,1,.14.6.62.81.63,1.21s-1.05,1.33-.84,1.93c.13.39,1,.73,1.39,1a4.34,4.34,0,0,0,1.66.61c.41,0,.75-.2,1.14-.19a5.29,5.29,0,0,1,2.1.65c.72.5.71,1.39,1.53,1.64.34.1.94,0,1.38,0,1.07.17,2,1.11,2.7.93,1.19-.27.52-1.54.57-2.5.11-2.17,3.71-2.4,4.55-1a15.61,15.61,0,0,1,1.61.1c.36.1.66.52,1,.59a8.94,8.94,0,0,0,.94-.09c1.39.06,2.76,1.14,3.92.82.74-.2,1.21-1.07,1.92-1.19,1.37-.23,2.37,1,3.81.24,1.05-.55.68-1.84.93-3.21a13.76,13.76,0,0,0,.59-2.34Zm3.69-10.31c1.92-.59.85-2.43-.2-3-.8-.45-1.74-.82-2.67-1.36-.54-.31-2.53-.81-2.61-1.53s1.34-1.18.64-2.51c-1-.19-3.32.47-3,1.71.16.73.87.25,1.11,1-.68.36-1.47,1.2-2.22,1.14-.9-.08-1.24-1.32-1.79-2-.68.09-1.2-.67-2-.49s-1.16,1.66-1.52,2.43c-.2.4-.54.63-.64,1s.06.54,0,.85c-.16,1-.82,1.36-.67,2.17s.84,1,.94,1.61-.9.39-.76,1.17c1.4,1.11,1.31-.71,1.94-1s1.58,0,2.23-.2.9-.83,1.49-1.16a3.92,3.92,0,0,1,1.34-.46c2.28-.32,3.92,1.28,5.92,1.15a14.61,14.61,0,0,0,2.5-.4Zm17.49,4.47c.09-2.94-1.88-3-2.43-5,.17,0,.06-.25.19-.27.45-.31,1.23.31,1.42-.38a1.49,1.49,0,0,0-2.28-1.06c-.33-.22-.43-.78-.55-1.3-.87-.49-3-1.54-3.08-2.68-.06-.93.92-1.55,2.1-1.63.46-.48,0-1.8-.48-2.07a3.9,3.9,0,0,0-4,1.21c-.52.53-1.12.92-1.41,1.23a2.25,2.25,0,0,0-.52,1.4c.09.52.76.76,1.07,1.43.16.34.18.78.32,1.07.39.78,1.24,1.22,1.91,1.85.48.44,1.78,1.37,1.85,1.94s-.31.62-.4,1.14a7.13,7.13,0,0,0,0,2.11c.24.91,1.06.86,1.85,1.18s1.56.94,2.33.89a2.8,2.8,0,0,0,2.09-1Zm4.33-11.3c1.14-.37-.21-2.44-1.07-2.1-1.12.44.29,2.35,1.07,2.1Zm16.46-5c-.33-.61-1,.28-.65.82.49,0,.64-.35.65-.82Zm-41.44,87.76c.23-.64-.55-1-.73-1.62s0-1.7-.63-2.06l-.21,0c-.4,1.42.55,3.62,1.57,3.66Zm3.6-9c.19-.6.7-1.27.54-2-.36-1.6-2.88-.56-3.06.62-.13.79.24,1.38.05,2.19.34.6,1.06.65,1.94.5.46-.29.36-.77.53-1.32Zm2.62,17.43c.28-.65.54-2.42-.25-2.77h-.15c-.25.73-.44,2.44.4,2.76Zm-42.59-26.33c-2.11-.17-4.14,1-5.5,1.85a7.37,7.37,0,0,1-2.27,1.31,11.91,11.91,0,0,1-2.06-.31,9.55,9.55,0,0,0-2.8.42c-.81.25-1.49,1-2.22,1.14-1.38.25-2.86-1.22-3.81-1.93-.58-.44-1.16-.79-1.71-1.2s-1.3-.67-1.77-1.1c-.63-.59-.73-1.7-1.1-2.52s-1.58-1.6-2.48-2.48c-.68-.65-2.17-1.58-2.41-2.48-.12-.46.08-1,0-1.52-.1-.73-.62-1.1-.66-1.63,0-.74.64-1.38.76-2,.07-.32,0-.77,0-1.18a6.24,6.24,0,0,0,.34-2.65c-.09-.49-.5-.91-.58-1.55-.06-.44.18-.71.11-1.12-.12-.7-.93-.77-1.09-1.58s.55-1.62.92-2.63c.17-.45.22-1.12.37-1.47.34-.75,1-1.15,1.21-1.88.18-.54.18-1.32.35-1.73s.72-.84,1.17-1.54.46-1.24.73-1.51a6.58,6.58,0,0,1,1.24-.7,6.13,6.13,0,0,0,2.67-3.38,3.89,3.89,0,0,1,.31-2.9,5.24,5.24,0,0,1,1.31-2.32c.85-.67,1.69-.81,2.21-2a5.53,5.53,0,0,0,.6-2.16,2.29,2.29,0,0,0-1.55-1.89c-.66-.06-1.6.73-2-.06-.14-.26,0-.89-.11-1.18-.13-.54-.57-.89-.62-1.29-.11-.79.51-1.67.63-2.6a12.82,12.82,0,0,0-.41-3.59c.84-1.94,3.16-1.23,5.41-1.26.33,0,.71-.16,1.07-.19,1.32-.08,2.41.28,2.73-1.09a10.26,10.26,0,0,0,0-2.88,6.53,6.53,0,0,0-1.73-2.2c-.76-.46-1.78-.14-2.27-1.06.18-1.68,1.9-.45,2.82-.93.46-.25.32-1.23.74-1.43s.7.29,1.11.24a7,7,0,0,0,1.85-1.19c.43-.4.5-1.17.88-1.51s.62-.25.9-.42A5.54,5.54,0,0,0,163.11,55c.52-.88.69-1.94,1.4-2.16,1-.29,3.17-.07,3.22-1.31s-1.08-2-.81-3.31c.21-1,1-.92,2-1.62.56.38.53,1.64.65,2.39.67-.05,2-.42,2.08-1.12.08-.88-1.14-1.65-1.43-2.15s-.47-1.53-1-1.6c-1.12-.14-2,2-3.37,2.09a2.44,2.44,0,0,1-2.23-1.4,7.34,7.34,0,0,1-.2-1.34,6.75,6.75,0,0,1-.5-2.31c.44-1.16,1.7-1.45,2.56-2.1.33-.25.56-.73.93-.93.62-.34,1.6-.15,2.2-.63.37-.3.22-.75.46-1.31.15-.35.57-.59.78-1s.12-.69.27-1c.54-1,1.65-1.4,2-2.38.17-.43-.41-.54-.32-1.16s1.12-.25,1.63-.4c.71-.19,1.27-1.27,2-1.54a15.5,15.5,0,0,0,2.41-.64c.43-.25.81-.77,1.23-.88.14,0,.58,0,.79,0s.56-.26.92-.34c.52-.11,1.2.05,1.89,0,1.14-.08,2.18-.6,3.17-.21.52.21.53.87,1.19,1.07.34.11.74-.12,1.23-.11.71,0,1.5.51,2.44.54.34,0,.67-.11,1-.1a16.81,16.81,0,0,1,3.28.88c.87.26,2.7.51,2.82,1.44.14,1.09-1.43,1.56-2.11,1.63-1.13.1-2.7-.53-3.84,0a3.16,3.16,0,0,0,3.67,2.79c.06-.9-1-.31-.91-1.18.66-.7,1.62.27,2.62,0,.38-.16.25-.82.31-1.3.8-.68,1.79-1.67,3.17-1.13a.7.7,0,0,1,.25-.37c0-.92-1-1.32-.57-2.23.2-.61,1.56-.53,1.81-.08s-.28.54-.19,1a1.12,1.12,0,0,0,1.22.65c.7-.11.77-.86,1.4-1.31.26-.18.65-.24,1-.43s.7-.64,1-.77.6-.05.93-.17.83-.58,1.18-.61.79.51,1.35.55c.31,0,.63-.26,1.06-.35s.72,0,1-.1c.68-.18,1.11-.64,1.68-.66.41,0,1.15.55,1.4.21.42-.58-.71-.88-.42-1.4,1.12,0,2.29-.14,3.41-.06,1.67.12,3.31.93,4.8.82-.25-1.15-1.37-.71-1.93-1.17a5.08,5.08,0,0,1-.95-1.69,10.45,10.45,0,0,1,.82-2.1c.57-.75,2.65-.94,3.34-.06.46.61.42,1.59,1,1.52s.64-1.55,1.23-1.64.82.87,1.31.81.89-1.4,1.67-1.51c.43,0,.59.2,1.26.23.42-.38-.22-.77,0-1.27.75-.75,2.63-.41,3.62-.92.25-.43-.43-.65-.17-1.09.82-.8,2.31-1,3.79-1.44.91-.27,1.71-1.1,2.43-1.24s1.52.38,2.2.3A3.72,3.72,0,0,0,244,14.2c.39-.23.62-.71,1-.86a17.65,17.65,0,0,1,2.16-.2,9.19,9.19,0,0,1,2-.52c.53.05,1,.66,1.51.71,1.55.13,3.06-.55,4.49-.25.25.06.53.33.83.43,1,.31,1.59.13,1.88,1.43.76.24,1.25,1,2.14,1.16a6.38,6.38,0,0,0,1.79-.25,17.58,17.58,0,0,1,2.68-.08c.42,0,.79.36,1.2.4s.67-.1,1-.1a10.38,10.38,0,0,0,1.25.14c.75-.09,1.25-.93,1.86-1.1a4.41,4.41,0,0,1,1.09.07c1.23,0,2.6-.43,3.61-.25a7,7,0,0,1,2.14,1.16c.46.33.77.91,1.2,1.15a3.62,3.62,0,0,0,1.79.51c.45-.12.42-.72.85-1,1.39-.5,4,.16,5.1-.56.43-.28.29-.82.62-1.16,2.15-.32,4.33-.29,6.36-.41a13.09,13.09,0,0,1,2.08-.28c.73.08,1.32.86,2.06,1.08.49.14,1.31,0,2,.06.49.07.91.37,1.27.39a8.25,8.25,0,0,0,2.22-.37,10.93,10.93,0,0,1,5.45,0c.9.32,1.34,1.1,2.28,1.14,1.35,0,3.38-.44,4.75-.44a6.35,6.35,0,0,0,.88.08c.45-.07.69-.55,1.25-.62s2,1.13,3,.83c.41-.39-.44-.81,0-1.18s1-.1,1.58-.15c.34,0,.74-.27,1.07-.27.8,0,1.62.77,2.63.94a7.75,7.75,0,0,0,2.82-.09,7.16,7.16,0,0,1,1.92-.43c.33,0,.63.27,1,.33s.6-.05.87,0,.51.29.76.35c1.38.32,3.18.38,4.64.76a10.77,10.77,0,0,0,2.47.7c.34,0,.62-.23,1.06-.27,2.18-.18,4.83.64,4.85,3-2.48.88-4.86-1.61-7.46-.58a1.29,1.29,0,0,0-.75,1.25c.23,1.45,3.38,1,3.78,2.44-.48.5-1.08.13-1.51.23a5.07,5.07,0,0,0-2,1.54c-.44.57-.74,2-1.26,2.14s-1.69-.59-2.64-.26c-.34.12-.64.66-.94.76-.78.25-1.86-.34-2.25.8.33.74.27,1.82.86,2.2.37.25.79,0,1.24.14s.87.87,1.35,1.23.77.27,1,.67c.1.61-.15.7-.05,1.1.18.69,1.14.77,1.21,1.24s-.55.53-.62,1.16c0,.39.43.45.52,1,.06.34-.17.73-.11,1.11.08.56.49.9.49,1.39a1.31,1.31,0,0,1-.57,1c-1.47-.91-2.84-2.21-4.45-3.4s-4.2-2.65-4.72-5.48c-.05-.43.73-.85.81-1.51,0-.27-.15-.63-.17-1,0-1,.58-2,.49-2.58a3.37,3.37,0,0,0-1.77-1.86c-.39.29.07.76,0,1.18a1.55,1.55,0,0,1-1,1.27c-1.35.26-1.71-1.9-3.81-1.09a2.19,2.19,0,0,0-.93,2.46c.09.36,1,.67,1,1.17s-1.9.81-2.32.81c-1.17,0-1.86-1-2.91-.83-.51.06-.92.59-1.31.71-2.23.69-5.76-.78-6.32,1.6-.08.34,0,.75,0,1.1a12.57,12.57,0,0,1-.47,1.23c-.06.27,0,.77-.11,1.19s-1.32,1.94-.08,2.21c.29.06.4-.18.78-.16.63,0,1.76,1.1,2.49,1,.44,0,1-.67,1.32-.71.66-.1,1.19.35,1.72.6s1.31.74,1.67.69c.67-.1.3-.62.93-.93,1.28.31,2,1.8,3.31,2.91.48.39,1.15.71,1.79,1.27.36.3,1.45,1.12,1.53,1.55s-.23.59-.28.95c-.07.52.24.87,0,1.27-1.19-.39-1.57-1.68-2.5-2.73-.35-.38-.7-.85-1.22-1.4-.23-.25-1.09-1.13-1.54-.88-.86.49.69,2,.94,2.28a6.27,6.27,0,0,1,1.39,2.41c.07.5-.15,1.44-.08,2.29.05.58.23,1.09.22,1.59a12.88,12.88,0,0,1-.36,1.64c-.11.63-.08,1.36-.2,1.79a2.82,2.82,0,0,1-1.72,1.85c-.59.08-.9-.46-1.48-.37-.88.13-1,1.09-1.42,1.9.12.82.37,1.09.3,1.67-.12.9-1.17,1.16-1.05,2s1.06.89,1.56,1.21A12.74,12.74,0,0,1,318.29,64a5.1,5.1,0,0,1,1.16,2.26c0,.84-1.93,2.18-2.81,2s-.63-1.14-.9-1.94c-.21-.63-.66-.86-.92-1.36-.14-.26-.13-.69-.31-1-.52-.81-1.23-.28-2.18-.73-.62-.3-.52-1.05-.81-1.7a2.3,2.3,0,0,0-2.76-.84c-.76.24-.93,1-1.63,1.24-1.12-.63,0-2.54-1.33-2.58-1,0-1.5,1.81-2,2.39-.36.38-1.07.52-1.07,1,0,.94.91.66,1.69.95s.86,1.14,1.48,1.13.8-.7,1.31-.8a3.27,3.27,0,0,1,2.23.56c-.27,1-2.14,2-2,3.31.07.78.86.84,1.5,1.3s1.32,1.55,2.1,2.34c.34.34.86.54,1,.75.38.53.39,1.21.79,1.54.11.45-.12.58-.05,1,.24.59,1,.4,1.26,1,0,1.46.62,2.77-.34,3.41-.23,2.64-.57,4.71-2,6.27-1.25,1.39-3,1.93-4.61,2.71-.42.2-.71.75-1.08.94-.92.47-2.65.39-2.59,1.76,0,.68.83,1,.95,1.69a2.16,2.16,0,0,1-1.1,2.3,1.3,1.3,0,0,1-1.47-1c-.15-1,.93-1.51,1-2.12a1.81,1.81,0,0,0-2.05-1.84c-.95.17-2.91,2.6-2.85,3.82.05.91,1.81,2.65,2.4,3.16,2.21,1.88,4.48,2.93,4.59,8-.39,1.32-1.65,1.72-2.6,2.52-.72.6-.95,2.31-2.23,2.57-.54-.16-.33-1.13-.51-1.56-.25-.58-1.31-.78-2-1.33s-.87-1.23-1.32-1.66-1.32-.58-2-.92c-.41-.21-.79-1-1.18-1-.63.08-.35.77-.4,2s-.7,2.15-.33,3.5c.15.56.8,1,1.15,1.5.59.9.76,2,1.32,2.5.37.33,1,.35,1.37.63a10,10,0,0,1,2.63,2.55c.4.85.19,1.92.48,2.83s1.62,1.71,1,2.87a5.71,5.71,0,0,1-2-.92,6.29,6.29,0,0,1-2.32-2.32,8.36,8.36,0,0,1-.67-1c-.32-.73-.34-1.59-.66-2.48a8.19,8.19,0,0,0-1.84-2.54c-.55-.5-1.48-.74-1.59-1.54-.16-1.12.1-2.48-.06-3.8,0-.28-.23-.55-.3-.9-.14-.63-.08-1.43-.26-2a10.1,10.1,0,0,0-.79-1.45c-.23-.47-.48-.93-.72-1.54-.38-.94-.88-2.78-1.57-2.82s-1.29,1.71-2.23,1.82a1.35,1.35,0,0,1-1.31-.9c-.14-.5.13-1.05.07-1.61-.13-1.12-.86-1.49-1.45-2.23-.23-.3-.33-.75-.52-1-.37-.42-1-.62-1.48-1a7.17,7.17,0,0,1-1.15-1.42c-.33-.63-.5-1.47-.93-1.52s-.82.67-1.23.87a9.81,9.81,0,0,1-1.91.6c-1.43.25-2.65-.09-2.29,1.9-.14.93-1,1-1.46,1.49a22.24,22.24,0,0,0-1.71,2.69c-.33.47-.84.78-1.13,1.21s-.28.89-.54,1.23c-.69.92-1.83,1.1-2.25,2.32.1,1.4.79,2.4.78,3.73,0,.61-.35,1.18-.35,1.81a11.2,11.2,0,0,1,.23,1.67c0,.31-.31.5-.5.89s-.21.81-.33,1.05-.59.67-.79,1c-.32.54-.36.9-.7,1-1.56.41-2.27-3-3.1-4.44-.38-.65-1.09-1.19-1.49-2s-.68-2.07-1.3-3.09a22.92,22.92,0,0,1-1.63-2.64c-.33-.78-.64-1.75-1-2.62a15.88,15.88,0,0,1-.84-2.79c-.16-1.08,0-1.78-.78-2.13-.68.26-.91,1.1-1.71,1.17s-3-1.29-2.5-2.73c-.58-.78-1.89-1.12-2.95-2-.6-.51-1.22-1.79-2.2-1.82a4.15,4.15,0,0,0-.85.25c-.6.11-1.69.09-2.37.22a13.27,13.27,0,0,1-3,.44c-.72,0-1.61-.1-2.34-.12a4.77,4.77,0,0,1-2.75-.68c-.35-.31-.58-1.4-1.15-1.49s-1,.51-1.6.73a3.77,3.77,0,0,1-3.41-.7c-.68-.43-1.28-.63-1.76-.93-1.17-.75-1.61-3.3-3.27-3.17-.58,0-1.46.56-1.48,1.32a4.51,4.51,0,0,0,1,1.86c.93,1.25,2.46,1.61,3.06,3.35.32.11.88-.39,1.24,0,.35.74.19,2.18.88,2.46,3,.29,3.72-1.69,4.94-3.17.83.52.62,1.06.95,1.69a2.61,2.61,0,0,0,1.36,1.31c.37.13.82-.06,1.39.13a5.89,5.89,0,0,1,2,2.1,8.47,8.47,0,0,1-1,2.71c-.25.44-.67.69-.77,1.08s0,.91,0,1.1c-.11.35-.71.85-1.05,1.28A15,15,0,0,1,233.7,102c-.42.44-.65,1-1.12,1.28-.92.5-1.85.41-2.58,1.09-.49.44-.41,1.33-1,1.86s-1.74.67-2.65,1.26c-.58.38-.89,1-1.4,1.32-.21.1-.49.05-.72.15-.46.18-.87.62-1.3.79s-.73.12-1.07.27c-1.07.48-2,1.88-3.15,1.22-.66-1.36-.91-3.13-1.64-4.33-.37-.61-1-.75-1.29-1.4-.08-.54.49-.44.5-.89-.27-.89-1-1.25-1.56-2-.26-.36-.41-.88-.7-1.29-1-1.37-2.76-2-3.25-3.76-.14-.48-.07-.88-.19-1.25a5.18,5.18,0,0,0-1-1.68c-.31-.34-.89-.55-1.26-1.07-.24-.34-.33-.84-.55-1.21a13.67,13.67,0,0,0-3.25-3.76c-.58.15-1.2.26-1.46.73a14.25,14.25,0,0,0,1.5,2.82,17.46,17.46,0,0,1,1.61,2.55c.15.34.17.8.33,1.16.57,1.28,2,1.56,2.46,3.07.29,1,.12,1.74.47,2.74s1.65,1.43,2.25,2.33a22,22,0,0,1,1,2.53c.53,1,1.78,1.39,2.73,2a25.44,25.44,0,0,1,2.23,2.16c.43.37,1,.4,1.1.83s-.14.78-.18,1.29c.62.61,1.27,1.8,2.21,1.82.38,0,.82-.48,1.39-.63.29-.08.62,0,.86-.08s.68-.55,1.1-.7c.72-.25,1.58-.25,2.5-.48s1.39-1.14,2.09-1c.83.87.4,2,.27,2.93,0,.33,0,.66,0,.93-.26,1.53-1.17,2.73-1.52,4.12-.1.42,0,.92-.16,1.36a27.55,27.55,0,0,1-3.46,5.82c-.47.54-1.08.87-1.61,1.41a17.07,17.07,0,0,0-2.83,4c-.27.53-.37,1.12-.65,1.58-.42.65-1.11,1-1.45,1.65a18.82,18.82,0,0,0-.66,2.26c-.31,1-1.08,1.72-.81,3,.1.51.52.79.7,1.29a6.66,6.66,0,0,1,.17,2.61,8.82,8.82,0,0,0,1.73,3c.25,1.68.19,3.35.44,4.77a5.3,5.3,0,0,1,.3,2.43,7.76,7.76,0,0,1-1.71,2.69c-.64.58-1.67.8-2.34,1.49-.47.47-.82,1.26-1.28,1.81-.78.9-1.87,1.78-1.87,2.62a6.72,6.72,0,0,0,.59,1.64,8.48,8.48,0,0,1,.47,4.35c-.38,1.49-3,1.44-3.21,3,0,.47.26.82.27,1.33a13.85,13.85,0,0,1-.49,2.49c-.26.73-1,1.1-1.37,1.74s-.72,1.89-1.27,2.73A23.4,23.4,0,0,1,204,184.4a8.39,8.39,0,0,1-4,2.14c-.86.16-1.83-.07-2.74.17-.33.09-.67.49-1.11.61-.25.08-.53,0-.79.08-.44.13-.83.59-1.25.62a2.8,2.8,0,0,1-2.4-2.4c-.06-.5.28-1,.23-1.46s-.68-1.15-1.21-2.09-.77-1.94-1.26-2.66-1.15-1.11-1.54-1.72a13.49,13.49,0,0,1-1.34-4.28c-.12-.5-.47-1-.59-1.63a22.13,22.13,0,0,0-.28-2.26,11,11,0,0,0-1-1.51c-.61-1-1.1-2.43-1.61-3.24s-1.37-1.5-1.52-2.39a14.33,14.33,0,0,1-.08-2.36c0-.6.36-1.1.42-1.73.05-.42-.09-.88-.05-1.35.19-1.95,1.94-2.81,1.49-5.12-.19-1-.84-1.41-1-2.53-.09-.52.13-1,.08-1.53a8.69,8.69,0,0,0-1-2.35,20.1,20.1,0,0,0-2.69-4.74c-.64-.71-1.45-1.19-2-1.85a5.57,5.57,0,0,1-1-2c-.06-.48.24-.81.31-1.3s0-1.81.11-2.8a8.31,8.31,0,0,0,.22-2.3,3.41,3.41,0,0,0-1.94-2.11c-1-.19-2,.57-3.29.56-1.16-.7-1.28-2.82-2.88-2.94Zm9.58-83.56c.21,1.4-1.74,1.4-1.87,2.63-.06.55.34,1.25.31,1.74-.07.9-.82.71-1.7,1.26-.45.28-.83,1.19-1.33,1.3s-.8-.25-1.11-.15c-.46.15-.24.81-.92,1s-1.58-.44-1.56.4c0,.53.94.74,1.51.62s.74-.49,1.18-.53c.85-.09,1.48.6,2,.57,1.24-.07,2.32-1.55,3.63-1.52.6,0,1,.47,1.42.38.69-.14,1.19-1.13,1.68-1.51-.35-1.39-.29-3.28.84-3.46.77-.12,2.09,1.37,2.09-.19a1.25,1.25,0,0,0-1.2-1.16c-.41.05-.87,1-1.28.29-.07-.77.69-.63,1.08-.86s.48-.58.81-.75c1.64-.86,4.15.31,4.65-1.45-1.65-1.37-4,.93-5.79,1a2.39,2.39,0,0,1-2.08-1.33c-.1-.25-.07-.6-.18-1.08s-.4-1.07-.42-1.4c-.06-1.52,3.15-2.1,3-4a2.43,2.43,0,0,0-3,.44c-.19.29-.13.83-.38,1.39-.54,1.21-2.62,1.53-3.14,3a3.34,3.34,0,0,0-.13,1.7c.24.78,1.77.85,1.9,1.68Z"></path><path class="cls-1" d="M204.06,27.26c-.29-.89,1.2-.88,1,0a.72.72,0,0,1-1,0Z"></path><path class="cls-1" d="M199.83,78.2c0-.7,1.3-1.08,1.63-.49,0,.68-1.28,1.26-1.63.49Z"></path><path class="cls-1" d="M174.71,76c.69-.77,2.4-.45,3.43-.57-.13.66-.08,1.5-.47,1.9a3.69,3.69,0,0,1-3-1.33Z"></path><path class="cls-1" d="M169,72c.88-1.29,2-.75,1.82,1.61-.17.72-1.11,1.74-1.67.75A10.23,10.23,0,0,0,169,72Z"></path><path class="cls-1" d="M170.24,69.18a1.18,1.18,0,0,1-.39,1.3c-1-.1-.43-2.15.39-1.3Z"></path><path class="cls-1" d="M154.7,53.45a1.51,1.51,0,0,0-.78-1.28c-.25-.13-.6,0-.89-.17-.74-.38-1.08-1.29-1.51-1.47,0-.92-.36-1.56-.2-2.18a4.54,4.54,0,0,1,1.44-1.73c.6-.32,1.28-.15,1.6-.74a.44.44,0,0,1,.37,0c0,.53-.33.65-.34,1.13.16.75,1.27.17,1.47.88,0,.79-.63,1-.59,1.57s1,1.36,1.49,2c.37.45,1,.76,1.28,1.23s.39.93.61,1.13c.42.38,1.28.37,1.4,1,.16.79-.75,1.19-.53,2.08-.91,1-2.6.68-4.19,1.06-.72.18-1.45,1.09-2.28.46-.23-.54.58-.69.61-1.23s-.64-.38-.8-.78c.15-.67.79-.86.63-1.83.36-.55,1.15-.43,1.21-1.13Z"></path><path class="cls-1" d="M149.11,51.94c.9-.77,2.63-.4,2.8.42.12.62-.45.77-.59,1.49s.16,1.4,0,1.86-.78.44-1.18.62c-.87.4-2.51,1.8-3.37.48,0-.75.64-1,.8-1.59,0-.49-.5-.71-.48-1.23s.46-.46,1-.77c.41-.23.54-.84,1.05-1.28Z"></path><path class="cls-1" d="M98.24,38.29c.22.73-1.74,1.9-2,1-.23-.76,1.41-1.88,2-1Z"></path><path class="cls-1" d="M113.29,227.43l-1.08.1a1.45,1.45,0,0,1,1.08-.1Z"></path><path class="cls-1" d="M92.07,32.86a.31.31,0,0,1,.43,0c0,.2-.08.42-.4.37l0-.33Z"></path><path class="cls-1" d="M86.89,46.78c.06.46-1.32,1.35-1.55.48a.71.71,0,0,1,.22-.7c.36-.31,1.28-.23,1.33.22Z"></path><path class="cls-1" d="M64.12,127.4c0,.13-.09.23-.12.35-.76,0-.18-1.16.12-.35Z"></path><path class="cls-1" d="M29.47,71.52c.47-.39,1,.42.73.86-.54.18-.75-.55-.73-.86Z"></path><path class="cls-1" d="M82.23,129.29c.56-.17.25-1.67-.4-1.24-.5.33-.13,1.38.4,1.24ZM52.72,45.62c.45-.14,1,.06,1.19-.45-.51-1.81-2.6-.48-3.87-.23a4.52,4.52,0,0,0-.56,1.74c1,.2,2.14-.74,3.24-1.06Zm.92,6c.39-.2,1-.17,1-.69-.36-.28-.75-.67-1.15-.65s-.72.59-1.22,1-1.41.6-1.41,1.23a4.67,4.67,0,0,0,2.76-.85ZM65.73,41.8c.23-.2.57-.48.36-.88-.84-.36-2.15.09-3.34,0-.77-1-1.89-1.09-1.83.68,1.46,1.14,3.32-.9,4.81.15Zm26.77-9a.31.31,0,0,0-.43,0l0,.33c.32.05.35-.17.4-.37Zm9,7.45c.35,0,.54-.13.45-.55a.36.36,0,0,0-.45.55ZM27.07,60.41c0-.16-.1-.18-.11-.33-.22,0-.48,0-.41.29a.29.29,0,0,0,.52,0ZM64,127.75c0-.12.09-.22.12-.35-.3-.81-.88.39-.12.35ZM62.09,64.54c.8-.11,1.09-2.93-.22-2.44-.88.33-.89,2.58.22,2.44ZM72,73.09c-.34-.38-1.91.23-2.34.64a8.76,8.76,0,0,0-.74,1.42c-.29.51-.64.91-.89,1.35s-1.46,3-.29,3.15c.5.08,1.39-1.19,1.44-1.65a5.13,5.13,0,0,1,1.64-3.53C71.33,74,72,74,72,73.09Zm.89-1.43c1.37-.85-.56-2.88-1.23-3-1.2-.25-2.73,1.26-4,1.81-.74.31-1.46.4-1.57,1.16.81,1.25,2-.47,3-.36.51.06.88.83,1.39.88a12.78,12.78,0,0,0,2.43-.47Zm3.75,6.07c-1.06-.32-1.94.47-2.77.68-.49.13-1.42,0-1.23.88.16.7,1.08.35,1.61.1a6.44,6.44,0,0,0,2.39-1.66Zm.7-3.44a1.11,1.11,0,0,0-.45-1.74c-.24,0-.53.26-.92.26s-.86-.39-1.2-.4a1.6,1.6,0,0,0-1.31.72c0,.5.37.55.39,1.06-.65.65-.1,2.56.6,2.56s.91-2.25,1.87-2.53c.34-.11.56.18,1,.07Zm3.88,1.08c-.33-.32-1.3-.13-2,0-.47.1-1,.27-1,.69.79.33,2.86.43,3-.7Zm-51-3c.31-.44-.26-1.25-.73-.86,0,.31.19,1,.73.86Zm78.06-5c-.35-.06-.8,0-1.24-.05s-.82-.13-1.18-.15c-.9,0-1.83.35-2.41-.19a25.2,25.2,0,0,1,2.75-4.06c.29-.37,1-.67.75-1.34-.68-.57-1.37.16-1.91.6a6.23,6.23,0,0,1-1.92,1.27c-1.17.32-2.81-.15-3.71.68-.08.65,1.14.29,1.06,1.26a1.28,1.28,0,0,1-1.32-.13c-.37-.32-.22-.87-.46-1.06a3.89,3.89,0,0,0-2.41-.11,1.77,1.77,0,0,0-1.38,1.56c1,.41,2.36-.73,2.81.5-.41,1.09-1.53,1.77-1.24,3.16a1.86,1.86,0,0,0,1.13,1.25c.41,0,.59-.44,1-.43s.37.56.84.43c.66-.41.94-1.58,1.74-1.6,1.08,1.26-.67,2.08-1.65,2.6s-2.58,1-3.42,1.5c-.44.27-2,2.39-2.38.9-.28-1.08.79-.86.92-1.78-1.14-.15-2.1.76-3.07,1.3-1.39.77-3.81,1.4-4,3.33,0,.38.24,1.07,0,1.35s-1.18.35-1.62.57c-.67.34-1.22,1-1.64,1.16s-.79.15-1,.26c-.55.32-.68,1.24-1.28,1.9-.24.27-.82.5-1,.77-.34.46-.29,1.55-.93,1.77-.41.08-.79-.29-1.16,0,0,1.08.56,2.5.26,3.62a20.35,20.35,0,0,1-2.69,2.36c-.56.45-1.09.6-1.78,1.09-.49.35-.9,1.11-1.46,1.57C72,94.32,70.47,95.59,70.7,98c0,.52.33,1.06.44,1.65.07.36,0,.71.1,1.09.17.87.82,1.94.24,2.6-1-.37-2.26-.42-3-1.16-.26-.81.23-1.54.08-2.29-.13-.6-1-1.61-1.39-1.64s-.8.53-1.26.53-1.12-.81-1.82-.84c-1,0-1.73.43-2.87.35-1,.77-1.23,2-2.57,2-.48,0-1-.37-1.5-.45A7.55,7.55,0,0,0,55,99.68c-1.22.2-2,1.31-3,2s-2.12,1.47-2.29,2.66c-.09.64.11,1.52,0,2.12-.1.39-.34.76-.48,1.14a9.65,9.65,0,0,0-.27,6.53,16.52,16.52,0,0,0,1.49,2.74,3.82,3.82,0,0,0,2.19,1,8.67,8.67,0,0,0,1.62-.57,14.57,14.57,0,0,0,1.84-.51c1.51-.72,1-3.15,2.46-4.12a6.41,6.41,0,0,1,2.61-.74,2,2,0,0,1,.66,1.54,11.91,11.91,0,0,1-.45,1.48c-.11.55-.09,1.18-.21,1.63s-.6,1-.73,1.58c-.08.36,0,.78,0,1.11-.11.56-.71,1-.37,1.55,1.61.57,3.39-.52,4.77-.35.57.07,1.82.75,1.9,1.77.06.76-.39,1.3-.38,2.14,0,1.06-.25,2.38-.21,3.23.06,1.4,2.1,3.63,3.37,3.5s2-1.79,3.75-1.11c.57.23,1.25,1.21,1.84,1.1s1.16-1.17,1.43-1.91.29-1.62,1-2.11,1.37-.38,2.32-.9a5.33,5.33,0,0,0,1.14-.95c.33-.31.63-1.07,1.11-.61.64.62-.61,1.11,0,1.78,1,.53,1.4-1.28,2.12-1.38a4.82,4.82,0,0,1,1.52.71c.6.38.85,1,1.48,1,.4,0,1-.27,1.57-.23.75,0,1.25.74,1.81.67s.92-1,1.49-1.15a1.82,1.82,0,0,1,2.4.88c.64.07.58-.9,1.18-.61-.24.75.21,1,.52,1.64.2.38.2.66.36.81.38.35,1,.29,1.58.62s.94,1,1.62,1.79a4.35,4.35,0,0,0,2.69,1.53c.79,0,1.41-.4,2.07-.36a6.39,6.39,0,0,1,3.64,1.69c.63.47,1.19.78,1.44,1.39.17.42.16,1,.35,1.49.42,1,1.77,1.39,1.47,3.24.26.51.76.66,1.32,1s.86.85,1.32.89c.29,0,.6-.16.85-.16a6.1,6.1,0,0,1,2.16.56,7.56,7.56,0,0,1,1.35.39c.39.25.52,1.21,1,1.42.31.14.94-.15,1.44-.13.78,0,1.88.49,2.58.44.43,0,.76-.28,1.14-.28,1.78,0,3,2.36,4.77,2.94.55.19,1.37,0,1.75.1.67.26,1.42,2.48,1.56,3.49.43,3-1.49,4.19-2.47,6.31-.2.44-.27,1.12-.56,1.75-.59,1.24-1.33,1.56-1,3.72.08.6.4,1.16.46,1.82a14.37,14.37,0,0,1,0,2.62c-.06.57-.42,1.05-.43,1.56s.21.9.19,1.34a8.67,8.67,0,0,1-.62,1.91c-.53,1.49-.53,3.19-1.82,3.89-.76.41-1.86.32-2.69.76-.34.17-.75.59-1.16.86-1.19.8-2.89,1.88-3.09,3.42-.19,1.37.65,2.37.58,3.92-.19.47-.45,1-.74,1.5s-.37,1.08-.65,1.58c-.38.67-1,1-1.21,1.89-.06.3,0,.63,0,1.1,0,.17-.27.46-.36.79s0,.69-.13.95c-.26.8-1.08,2.65-1.77,3-1.45.63-3.14-.45-4.15-.13.23.83.75.7,1.14,1.25a8,8,0,0,0,.68,1.12c.36.41.66.54.75,1a3.13,3.13,0,0,1-.86,2.53,5.84,5.84,0,0,1-2,.87c-.53.15-1.9.28-2.12.7-.32.62.38,2,.17,2.6-.43,1.28-2,.15-2.71.59a1.75,1.75,0,0,0,.73,1.54c.48.27,1.13-.2,1.48.37-.07.85-.83,1-.91,1.86.09.8.32,1,.28,1.49-.09,1.1-1.53,1.19-1.38,2.33.22,1.71,2.92.75,3.12,2.42.13,1-.69,1.09-.89,2.11-.11.54.15.64.1,1.09-.07.6-.65.83-.59,1.49s1.16,1.59,1.73,2.21a8.67,8.67,0,0,0,2,1.84c1.07.56,2.56.27,3.1,1.41-.07.71-.64,1-1.19,1.2l-.15,0a1.45,1.45,0,0,0-1.08.1l-1,.09c-1-.43-2.22-.65-3.44-1-.44-.14-1-.52-1.45-.71s-.76-.19-1-.33c-.66-.32-1.47-1.49-2.14-1.92-.41-.26-1-.36-1.3-.64a13.52,13.52,0,0,1-.69-1.2c-.27-.37-.72-.61-1-1a7.86,7.86,0,0,1-1.63-2.72c-.06-.67.45-1.18.2-1.79s-1.32-.35-1.55-1c-.13-.42.22-1.18.13-1.79-.05-.35-.66-.78-.49-1.31s.75,0,1.13-.36c-.41-1.18-.26-3.15-1.33-3.42-.48.57.7,1.64-.17,2-.92-.37-.84-1.72-1.12-2.68a11.92,11.92,0,0,1-.61-1.89,11.63,11.63,0,0,0,0-1.18c-.26-1.12-1.42-1.94-1.59-3.07a9.6,9.6,0,0,1,.21-1.62c0-.4-.12-.84-.11-1.26s.22-1.05.22-1.54a15,15,0,0,0-.45-3.26c-.27-.95-1-1.71-1.2-2.76-.07-.38,0-1-.06-1.51s-.34-.89-.42-1.4a11.13,11.13,0,0,1,0-1.53c0-1.06-.38-2.21-.44-3.25,0-.31.09-.55.06-.85-.09-.87-.41-1.72-.53-2.58a36.15,36.15,0,0,0-.45-4.18,16.68,16.68,0,0,0-1.05-3.45,10,10,0,0,0-2.9-2.36c-.54-.28-1.15-.33-1.73-.6-1.23-.56-3.64-1.76-4.28-3.07-.18-.37-.21-.89-.41-1.31a17.63,17.63,0,0,0-1.67-2.3c-1-1.5-1.93-3.42-3-5a20.27,20.27,0,0,0-1.59-2.31c-.33-.36-1.31-.64-1.49-1.21a11.28,11.28,0,0,1-.8-2.38c0-.81,1.31-1.58,1.24-2.31s-.81-.92-1-1.43c-.48-1.25,0-2,.36-3.16.11-.37.2-.94.32-1.22.22-.48.75-.66,1-1.19.17-.3.24-.89.46-1.31.47-.9,1.33-1.3,1.48-2.08a18.35,18.35,0,0,0-.37-4.79c-.18-.59-.71-1-.94-1.6-.42-1-.6-2.08-1.49-2-.55.07-.88.82-1.19,1.3,0,.6.07,1.24-.45,1.47-.79.36-1.22-.89-2.21-1.14-.39-.1-1,0-1.25-.14-.73-.3-1.06-1.47-1.84-1.86s-1.16-.15-1.59-.7a7.35,7.35,0,0,1-.22-1.67c-.84-.46-1.7-2.41-2.66-2.8-.64-.26-1.57-.14-2.36-.37a6.36,6.36,0,0,0-1-.32,5.77,5.77,0,0,1-1.32-.22c-1.5-.7-2.52-3.29-4.28-3.07-.75.09-1.4,1-2.08,1a7.77,7.77,0,0,1-2.77-.84c-.93-.4-1.93-.56-2.7-.93s-1.09-.9-1.63-1.12-1-.15-1.33-.3A13.39,13.39,0,0,1,39.5,118a2.79,2.79,0,0,1-1.31-1.57c-.08-.65.41-1.26.41-1.9,0-2-1.4-3.33-2.3-4.43-.67-.83-1.43-1.5-2.1-2.26a5.73,5.73,0,0,0-.11-1.17,18.11,18.11,0,0,1-1.48-1.9c-.49-.64-1.39-1.29-1.57-2-.22-.93.15-1.79-.24-2.68-.66-1.47-2.4-.62-2,1.37.12.54.86,1.22,1.11,1.75s.28,1.24.54,1.9.85,1.13,1.11,1.84c.42,1.12.52,2.36.87,3s1.27,1.13.83,2c-.67.23-1-.54-1.47-1-.26-.23-1.16-.64-1.35-1.22s.17-1.18,0-1.78c-.35-1.16-2.41-1-2.53-2.21-.07-.77.78-.94.72-1.68s-1.08-1.4-1.35-2.07a14,14,0,0,1-.52-2.49,18.5,18.5,0,0,0-.37-2.42,3.76,3.76,0,0,0-1.52-1.54c-.67-.35-1.16-.14-1.52-.71a7.72,7.72,0,0,1-.7-2.13c-.2-1-.22-2.11-.37-3.18a18.15,18.15,0,0,1-.3-3.27c.28-.84.89-1.3,1.18-2.14.2-.58.17-1.27.41-1.89a25.64,25.64,0,0,1,2.15-3.41A15.4,15.4,0,0,0,27.47,75a6.16,6.16,0,0,0,.38-2.15c-.17-.8-1.54-1.34-1.52-2.31,0-.6.74-.66.9-1.27a6.94,6.94,0,0,0,.08-1.53,15,15,0,0,1-.45-2.49c.05-.75,1-1.13.41-1.9s-1.31.56-1.89.09,0-1.06,0-1.94c0-.35-.24-.73-.24-1s.58-1.07.39-1.31c-.44-.53-1-2-1.89-2.36-1.11-.52-2.22,0-3.72-.16-.91-.1-1.43-1-2.26-.89-.51.09-.74.8-1.41,1.23a11.14,11.14,0,0,1-2.27.63c-.67.25-.95.83-1.66.83s-.66-.62-1.37-.64a10.74,10.74,0,0,0-1.2.37,14.45,14.45,0,0,1-4.26.31,11.64,11.64,0,0,1-2.92-1C1.64,57.14,0,56.71,0,56c0-.48,1.42-1.11,2-1.37.91-.42,1.44-1,2.15-1.13.27,0,.66.14,1,.08s.79-.5,1.25-.62c1-.26,2.43-.17,2.2-1.31-.82-.63-3.83.88-4-.64-.13-.91,1.07-1.31,2-1.61a12.5,12.5,0,0,1,2.76-.77c.83,0,2,1,2.37-.3.15-.87-.42-1.54-.64-2.22.52-1,1.66-1,2.5-1.25a9.17,9.17,0,0,0,2.66-1.09,9.42,9.42,0,0,1,2.66-1.09c1-.24,1.87-.75,2.75-.93a17.54,17.54,0,0,0,2.07-.36,7.29,7.29,0,0,1,1.9-.68c.45,0,.88.33,1.34.38s.91-.11,1.38,0,.69.3,1,.33c.56,0,1.12-.2,1.66-.16s.93.35,1.41.38c1.13.06,2.38-.29,3.48-.15.41,0,.8.25,1.26.31s.88-.1,1.3,0c.59.08,1.12.67,1.74.68,1.12,0,2.31-.78,3.46-1A18.18,18.18,0,0,0,46.19,41a14.93,14.93,0,0,1,2.25-.8,9.81,9.81,0,0,0,1.09,0c.37-.1.77-.66,1.18-.62s.52.85,1.11,1c.59-.44,1.25-.09,1.94-.18s1.24-.51,2-.44c1.33.12,3.3,1.44,4.26.54.24-.23.14-.58.33-1.13a4.66,4.66,0,0,0,.55-2.67c-1.44.16-2.74,1.1-4.38,1.33-1.77-1.06.26-2,1.42-2.67,1-.55,1.66-1.63,2.88-1.95a12,12,0,0,1,3.35.11,15.91,15.91,0,0,1,1.8-.08c.74.18,1.17,1,1.78,1.1.26.06.67,0,1,.08.66.11,1.28.46,1.87-.17.52,0,.64.68,1.16.73.45-.34.75-1.14,1.47-1.4.31-.11.66,0,1-.09.57-.17,1.27-1.16,1.71-.33-.09.62-.87.78-1.26,1.3A3.63,3.63,0,0,0,74,36.56c.15.79,1.16.39,1.29,1.4-.1.6-.71.39-1.17.7s-.55.79-1,.94c-1.28.41-2.43-.16-3.56,0,0,.58.65.85,1,1,1.08.53,1.91.37,3.36.2.74-.09,1.62.11,2.21-.46.37-.36.28-1.07.59-1.49a2.53,2.53,0,0,1,1.86-1,1.13,1.13,0,0,1,.87.77c.08.76-.88.6-.81,1.42.65.37,2.18-.67,2.2-1.38,0-.53-.6-.77-.63-1.3,0-.88,1-1,.77-1.84-.53-.41-1,.19-1.51.14-.72-.08-1.45-1-1.82-1.61.27-.48,1-.24,1.43-.22.45-.9,1.41-1.32,2.76-1.61.48-.1,1.11-.38,1.39.13.19.78-.89,1.36-.59,2.25,1,.19,1.17-1.36,1.92-2a7.81,7.81,0,0,1,1.31-.79c.42-.24.87-.77,1.23-.79s.51.35.92.51.81-.2,1,.33c-.68,1.76-3.88,1.08-4.53,2.87.29,1.13-.28,2.29.36,3,.45.51,1.31,0,1.58.61.35.75-.81.86-.42,1.73.81.46,1.62-.66,2.29-1.14s1.62-1.13,1.61-2.18c-.46-.81-1.82,0-2.11-.9A3.26,3.26,0,0,1,88.11,34a7.38,7.38,0,0,1,5-2.67c.37,0,.75.23,1.12.24,1.25,0,2.64-.87,3.67-.34.73-.6,1.73-.09,2.8-.35.89.5.77,1.75,2.09,2.18a11.64,11.64,0,0,0,1.24.05c.34.07.75.49,1.15.66.57.24,1,.13,1.14.57s-.33.76-.25,1.21c.34.27.12.74.32,1.15.39.75,1.17.62,2,.92.57.21,1.8.9,1.81,1.52,0,.42-1,1.24-1.32,1.48a5.37,5.37,0,0,1-1.8.92c-.69-.05-1.11-1.63-2-1.5a.84.84,0,0,0-.71,1c.09,1.11,1.17,1,1.28,2,.13,1.14-.43,1.27-1.19,2a5.63,5.63,0,0,0-1.95-.58c-.4.68.84.8.52,1.64-1.13.4-2.07-.19-3.17-.46-.34-.09-.81,0-1.1-.16s-.63-1-1-1.43a3,3,0,0,0-1.91-1c-.89.08-2.06,1.49-2.88.35.31-2,2.76-.76,4.22-1.57.54-.31.67-1,1.11-1.38.87-.7,2.38-.93,2.12-2.14-.12-.61-.86-.53-1.31-.81s-1.17-1.84-2-1.84c-.42,0-.68.44-1.12.53-.92.18-2-.26-2.8.25-.37.3-.07.69-.33,1.22s-.8.6-1,1-.13,1.08-.45,1.48c-.53.66-1.78.87-2.5,1.24-.32.17-.7.66-1,.69-.6.05-.94-.85-1.57-.45,0,.9.93,1.19,1.52,1.55a3.32,3.32,0,0,1,1.6,1.54c-.46,1.51-1.53.07-2.46.15s-2.3,2.49-3.35.73c.13-1,1-1.24,1.18-2.22-1,.29-1.79,1.37-3,1.79-.49.18-1,.19-1.42.39-.83.37-1.37,1.17-2.24,1.64-.34.19-.77.18-1.13.36a19.15,19.15,0,0,0-2.67,1.76,16.81,16.81,0,0,0-2.36,2,4.69,4.69,0,0,0-.92,1.86c.09.49.91.58,1,1.09,0,.31-.38,1,0,1.44s.9,0,1.53,0c1.12,0,1.93,1,2.83,1.51a6.65,6.65,0,0,0,2.4.79c1,.06,2.06-.53,2.28.39s-.82,1.29-.84,1.85c.61.77-.25,1.24-.18,2s.74,1.4,1.29,1.4c.73,0,1.71-1,1.93-1.87.27-1,0-2.39.58-3.18,3.36-.2,6-2.34,5.44-6.33A6.39,6.39,0,0,1,89.1,51c0-.66,1-1.29.74-2.1.91-.42.71-2.17,1.66-2.52.8-.29,1.8.51,2.86.33.35-.06.77-.47,1.13-.44.71,0,1.23,1,1.8,1.44s1,.19,1.16.74c-.06.95-.62,1-.48,1.9a1.75,1.75,0,0,0,1.21,1.33,3.13,3.13,0,0,0,1.75-.67c.92-.62,1.6-2.3,2.42-2.17.65.1,1.36,2.4,1.53,3.24s0,1.61.16,2.44c.22,1.4,1.74,1.12,2.56,1.79.24.2.39.77.6,1,.42.53.86.49,1,1.09.26,1.44-1,1.68-.72,3.28-.2.65-.86.68-.73,1.51.2,1.31,1.74.15,2.28,1.14.29.53,0,1-.05,1.78.63.72.74,2-.25,2-.6.06-.83-.68-1.45-.8Z"></path><path class="cls-1" d="M27,60.08c0,.15.11.17.11.33a.29.29,0,0,1-.52,0c-.07-.29.19-.27.41-.29Z"></path><path class="cls-1" d="M25.26,65.23a1.65,1.65,0,0,1-.92,1.1,2.11,2.11,0,0,1-.4-.39c0-.8.88-1.47,1.32-.71Z"></path><path class="cls-2" d="M194.08,23.23a94.19,94.19,0,1,0,94.19,94.19,94.3,94.3,0,0,0-94.19-94.19Zm0,189.16a95,95,0,1,1,95-95,95.08,95.08,0,0,1-95,95Z"></path><path class="cls-2" d="M146.56,61.33A147.6,147.6,0,0,1,120,59l.14-.77a156.68,156.68,0,0,0,48.19.89c26.44-3.48,51.15-13.17,67.79-26.6l.49.61c-17,13.71-41.21,23.22-68.17,26.76a166.84,166.84,0,0,1-21.86,1.45Z"></path><path class="cls-2" d="M152.48,100.94c-19.72,0-37.14-3.48-49.23-10.24l.39-.68c19.64,11,53.52,13.22,88.42,5.86,32.62-6.89,60.92-21,75.7-37.65l.58.52c-14.88,16.81-43.33,31-76.12,37.89a193.63,193.63,0,0,1-39.74,4.3Z"></path><path class="cls-2" d="M177.24,193.19c-21.11,0-40-4.53-53-13.18l.43-.65c19.39,12.94,52.28,16.57,85.84,9.49,31.37-6.62,58.31-21.42,72.06-39.6l.63.47c-13.87,18.33-41,33.24-72.53,39.9a163,163,0,0,1-33.44,3.57Z"></path><path class="cls-2" d="M168.14,147.08c-22.2,0-44.79-5-67.48-14.85l.31-.72c33.87,14.77,67.51,18.49,100,11.08,31.77-7.24,60-24.62,83.77-51.63l.59.51c-23.93,27.15-52.25,44.6-84.19,51.89a147.92,147.92,0,0,1-33,3.72Z"></path><path class="cls-2" d="M217.36,209.5c-.21-.6-21.27-61.87-42.05-184l.77-.13c20.77,122,41.81,183.24,42,183.85l-.74.25Z"></path><path class="cls-2" d="M265.68,180.19l-.65-.44a103.17,103.17,0,0,0,14.18-83.28c-8-31.29-30.09-57.31-59.19-69.62l.31-.72c29.32,12.4,51.61,38.62,59.64,70.14a104,104,0,0,1-14.29,83.92Z"></path><path class="cls-2" d="M150.23,201.46A104.55,104.55,0,0,1,138.76,40.08l.54.57a103.77,103.77,0,0,0,11.37,160.17l-.44.64Z"></path><path class="cls-2" d="M241.38,199.65l-.65-.44a118.8,118.8,0,0,0,16.33-95.91c-9.17-36-34.65-66-68.16-80.18l.3-.72c33.74,14.27,59.39,44.44,68.62,80.7a119.65,119.65,0,0,1-16.44,96.55Z"></path><path class="cls-2" d="M191.43,212.57C159,195,136.27,162.34,130.54,125.15a120.3,120.3,0,0,1,25.78-95.06l.61.5A119.5,119.5,0,0,0,131.31,125c5.7,36.95,28.31,69.42,60.49,86.85l-.37.69Z"></path><path class="cls-2" d="M235.53,74.74c0,6.81-3.53,12.33-7.88,12.33s-7.88-5.52-7.88-12.33,3.52-12.32,7.88-12.32,7.88,5.51,7.88,12.32Z"></path><path class="cls-2" d="M197.35,58.54C195.18,65,190.07,69.09,186,67.7s-5.71-7.74-3.54-14.19,7.28-10.56,11.4-9.17,5.71,7.75,3.54,14.2Z"></path><path class="cls-2" d="M248.37,80.52c0,4.35-2.27,7.88-5.08,7.88s-5.08-3.53-5.08-7.88,2.27-7.89,5.08-7.89,5.08,3.53,5.08,7.89Z"></path><path class="cls-2" d="M178.37,59.36c-.75,4.29-3.59,7.38-6.35,6.9s-4.41-4.35-3.66-8.64,3.58-7.38,6.35-6.9,4.4,4.35,3.66,8.64Z"></path><path class="cls-2" d="M259.39,86.58c0,3.66-1.87,6.64-4.17,6.64s-4.17-3-4.17-6.64,1.87-6.65,4.17-6.65,4.17,3,4.17,6.65Z"></path><path class="cls-2" d="M164.11,63.13c-.63,3.61-3,6.22-5.24,5.83s-3.6-3.64-3-7.26,3-6.22,5.25-5.83,3.6,3.64,3,7.26Z"></path><path class="cls-2" d="M270.81,96.23c0,3.54-1.9,6.4-4.24,6.4s-4.25-2.86-4.25-6.4,1.9-6.39,4.25-6.39,4.24,2.86,4.24,6.39Z"></path><path class="cls-2" d="M151.21,69.54c-.6,3.48-3,6-5.28,5.58s-3.69-3.55-3.09-7,3-6,5.28-5.58,3.7,3.55,3.09,7Z"></path><path class="cls-2" d="M280.62,107.4c0,2.63-1.66,4.77-3.7,4.77s-3.69-2.14-3.69-4.77,1.66-4.77,3.69-4.77,3.7,2.14,3.7,4.77Z"></path><path class="cls-2" d="M137.91,79.9c-.45,2.59-2.45,4.41-4.46,4.07s-3.27-2.74-2.82-5.33,2.44-4.42,4.45-4.07,3.28,2.73,2.83,5.33Z"></path><path class="cls-2" d="M266.57,111.09c-24.77-24.76-38.92-13-38.92-13-16.1,16.1,5.93,35.13,5.93,35.13,9.85,9.2,16.75,11.83,14.79,29.56S227.65,191,227.65,191c-17.67,9.2-24.21,16-26,20.75a94.39,94.39,0,0,0,68-36.45c.38-.68.77-1.34,1.14-2,21.15-39.74-4.24-62.16-4.24-62.16Z"></path><path class="cls-2" d="M136.37,89.84a38.32,38.32,0,0,1,34.48-15.1s15.44-2.11,17.08,12.33c2,17.83-15.11,24-15.11,24S142,121.61,156.4,153.5c0,0,3.29,9.24,19.38,21.39,0,0,17.07,11.5,17.4,26.93,0,0,2.3,15.11-18.06,2.3,0,0-45-25.94-47.29-69,0,0-5.58-26.27,8.54-45.31Z"></path><polygon class="cls-3" points="76.87 114.71 94.17 114.99 94.12 117.9 76.82 117.62 76.87 114.71 76.87 114.71"></polygon><polygon class="cls-3" points="77.46 104.91 91.14 97.6 78.84 95.74 79.27 92.91 96.39 95.49 95.96 98.33 82.31 105.59 94.58 107.45 94.14 110.33 77.03 107.75 77.46 104.91 77.46 104.91"></polygon><polygon class="cls-3" points="84.91 74.52 87.4 75.34 85.68 80.55 99.63 85.16 98.72 87.93 84.76 83.33 83.05 88.52 80.56 87.69 84.91 74.52 84.91 74.52"></polygon><polygon class="cls-3" points="92.57 58.81 94.91 59.99 90.63 68.41 94.81 70.54 98.65 63.01 100.96 64.18 97.12 71.72 101.38 73.88 105.79 65.2 108.13 66.39 102.39 77.67 86.97 69.82 92.57 58.81 92.57 58.81"></polygon><path class="cls-3" d="M107.89,53.12c1.59-2.14,1.6-4-.29-5.45S104,46.89,102.4,49L100,52.33l5.49,4.08,2.45-3.29Zm8.65,1.51-6.1-.59a7.66,7.66,0,0,1-.45.65L107.54,58l4.19,3.11L110,63.43,96.1,53.1l4.2-5.63c2.64-3.55,5.88-4.31,8.9-2.06a5.55,5.55,0,0,1,2.36,6.22l7,.34-2,2.66Z"></path><polygon class="cls-3" points="111.16 34.76 126.42 37.56 117.96 28.45 120.06 26.5 131.84 39.18 129.73 41.14 114.53 38.31 122.97 47.41 120.83 49.4 109.06 36.7 111.16 34.76 111.16 34.76"></polygon><path class="cls-3" d="M140.43,25.67l-6.85-4.77,1.33,8.25,5.52-3.48Zm2.33,1.6-7.38,4.65.68,4.19-2.57,1.62L130.72,19l2.53-1.59L148.88,28l-2.64,1.66-3.48-2.42Z"></path><polygon class="cls-3" points="153.37 7.39 154.43 9.79 149.41 12.01 155.36 25.44 152.69 26.63 146.74 13.19 141.74 15.41 140.68 13.01 153.37 7.39 153.37 7.39"></polygon><polygon class="cls-3" points="160.56 5.17 165.77 21.68 162.99 22.56 157.78 6.05 160.56 5.17 160.56 5.17"></polygon><path class="cls-3" d="M170.18,11.4a6.2,6.2,0,0,0,7.17,5,6.13,6.13,0,1,0-7.17-5Zm15.16-2.59A8.87,8.87,0,0,1,177.77,19a8.86,8.86,0,0,1-10.52-7.12c-.83-4.9,2.49-9.28,7.58-10.14s9.68,2.19,10.51,7.06Z"></path><polygon class="cls-3" points="193.09 0.07 202.05 12.74 202.36 0.31 205.23 0.38 204.79 17.68 201.92 17.61 193.02 4.97 192.7 17.38 189.79 17.3 190.22 0 193.09 0.07 193.09 0.07"></polygon><path class="cls-3" d="M220.4,14l-1.58-8.2L214,12.63,220.4,14Zm.55,2.77L212.42,15,210,18.42l-3-.64L218.09,2.46l2.93.63,3.77,18.5-3-.66-.8-4.16Z"></path><polygon class="cls-3" points="235.79 7.49 230.52 21.17 237.51 23.86 236.56 26.33 226.85 22.59 233.06 6.44 235.79 7.49 235.79 7.49"></polygon><path class="cls-3" d="M262.81,24.86a6.1,6.1,0,1,0-7.07,9.93,7.16,7.16,0,0,0,5.12,1.13l.28,2.57a9.81,9.81,0,0,1-7.1-1.57,8.76,8.76,0,1,1,10.24-14.2,9.54,9.54,0,0,1,3.81,6l-2.63.74a6.75,6.75,0,0,0-2.65-4.6Z"></path><path class="cls-3" d="M268.71,37.41a6.19,6.19,0,0,0,8.65,8.87,6.2,6.2,0,0,0-8.65-8.87Zm10.73,11A8.85,8.85,0,0,1,266.76,48a8.86,8.86,0,0,1-.12-12.7c3.56-3.47,9.05-3.22,12.65.48s3.7,9.21.15,12.66Z"></path><path class="cls-3" d="M281,61.56c1.55,2.35,4,2.87,6.42,1.25l8.47-5.57,1.6,2.44L289,65.25c-3.78,2.48-7.66,1.63-10.22-2.28s-1.83-7.82,1.95-10.3l8.47-5.57,1.61,2.44-8.48,5.56A4.33,4.33,0,0,0,281,61.56Z"></path><polygon class="cls-3" points="302.02 68.82 294.06 82.14 305.56 77.39 306.65 80.05 290.65 86.65 289.55 84 297.51 70.73 286.04 75.47 284.92 72.77 300.93 66.17 302.02 68.82 302.02 68.82"></polygon><path class="cls-3" d="M307.92,95.38A6.1,6.1,0,1,0,296,97.91a7.19,7.19,0,0,0,3,4.29l-1.52,2.09a9.84,9.84,0,0,1-4.18-6,8.76,8.76,0,1,1,17.15-3.54,9.56,9.56,0,0,1-1.25,7l-2.43-1.23a6.82,6.82,0,0,0,1.15-5.17Z"></path><polygon class="cls-3" points="312.36 109.39 295.11 110.87 294.86 107.96 312.11 106.48 312.36 109.39 312.36 109.39"></polygon><polygon class="cls-3" points="312.67 118.79 298.01 118.53 297.88 126.02 295.24 125.98 295.42 115.57 312.72 115.87 312.67 118.79 312.67 118.79"></polygon><path class="cls-3" d="M89.25,150.2a6.19,6.19,0,0,0,4.31,11.61,6.19,6.19,0,0,0-4.31-11.61Zm5.35,14.41a9.18,9.18,0,0,1-6.39-17.19c4.66-1.74,9.58.71,11.38,5.55s-.35,9.92-5,11.64Z"></path><polygon class="cls-3" points="109.97 173.96 107.68 175.25 103.36 167.72 99.03 170.21 102.94 177.03 100.69 178.32 96.78 171.5 90.63 175.03 89.17 172.5 104.19 163.89 109.97 173.96 109.97 173.96"></polygon><path class="cls-3" d="M115.42,195.22c1.87,1.91,3.75,2.21,5.43.56s1.33-3.44-.54-5.35l-2.87-2.94-4.89,4.79,2.87,2.94Zm-2.84,8.31,1.54-5.93a5.94,5.94,0,0,1-.58-.55l-2.87-2.93-3.73,3.65-2-2.09,12.38-12.11,4.91,5c3.09,3.17,3.34,6.49.65,9.12a5.54,5.54,0,0,1-6.52,1.36l-1.42,6.83-2.32-2.37Z"></path><polygon class="cls-3" points="139.74 203.03 138.19 205.15 130.57 199.58 127.8 203.37 134.63 208.36 133.09 210.46 126.27 205.47 123.45 209.32 131.31 215.07 129.77 217.18 119.55 209.71 129.76 195.74 139.74 203.03 139.74 203.03"></polygon><polygon class="cls-3" points="153.07 210.23 151.83 212.53 144.15 208.48 141.82 212.9 148.77 216.57 147.56 218.87 140.61 215.19 137.3 221.47 134.72 220.11 142.79 204.8 153.07 210.23 153.07 210.23"></polygon><polygon class="cls-3" points="158.03 212.05 152.96 225.81 159.99 228.4 159.07 230.88 149.31 227.28 155.3 211.04 158.03 212.05 158.03 212.05"></polygon><polygon class="cls-3" points="179.54 217.91 179 220.47 169.76 218.5 168.78 223.09 177.04 224.86 176.5 227.4 168.23 225.63 167.23 230.29 176.76 232.33 176.21 234.9 163.83 232.25 167.46 215.32 179.54 217.91 179.54 217.91"></polygon><polygon class="cls-3" points="184.9 218.44 188.82 224.65 193.37 218.86 196.78 219.02 190.56 227.04 196.41 236.34 192.93 236.16 188.59 229.41 183.62 235.7 180.22 235.53 186.95 226.98 181.51 218.27 184.9 218.44 184.9 218.44"></polygon><path class="cls-3" d="M201.7,227.35a6.21,6.21,0,0,0,7,5.32,6.13,6.13,0,1,0-7-5.32ZM217,225.42a9.18,9.18,0,0,1-18.2,2.3c-.62-4.93,2.88-9.16,8-9.81s9.57,2.6,10.19,7.51Z"></path><polygon class="cls-3" points="221.46 215.02 225.49 229.11 232.69 227.06 233.42 229.6 223.41 232.46 218.66 215.82 221.46 215.02 221.46 215.02"></polygon><path class="cls-3" d="M235.82,219.43A6.19,6.19,0,0,0,247,214.12a6.19,6.19,0,0,0-11.19,5.31Zm13.89-6.59a9.18,9.18,0,0,1-16.57,7.86c-2.13-4.49-.12-9.6,4.54-11.82s9.91-.51,12,4Z"></path><path class="cls-3" d="M262.31,204.13l2.07-1.48,3.72,5.18a11.73,11.73,0,0,1-4.16,5.75,8.83,8.83,0,0,1-12.51-1.83c-2.88-4-1.81-9.44,2.45-12.5a10.41,10.41,0,0,1,6.82-1.9l-.09,2.71a7.49,7.49,0,0,0-5.21,1.3,6.15,6.15,0,1,0,7.18,10,8.06,8.06,0,0,0,2.54-3.29l-2.81-3.92Z"></path><polygon class="cls-3" points="264.17 190.72 275.97 203.4 273.83 205.39 262.03 192.71 264.17 190.72 264.17 190.72"></polygon><path class="cls-3" d="M273,185.25c-1.11,1.29-1.34,2.55-.46,3.31,2.87,2.46,7.42-5.95,12.13-1.87,2.34,2,2,5.32-.47,8.2a10.58,10.58,0,0,1-6.68,3.58l-1.09-2.6a9.09,9.09,0,0,0,5.72-2.8c1.33-1.54,1.53-3,.52-3.83-2.93-2.51-7.38,6-12.05,2-2.25-1.93-2-5.07.45-7.92a11.25,11.25,0,0,1,5.29-3.44l1.16,2.6a10.33,10.33,0,0,0-4.52,2.8Z"></path><polygon class="cls-3" points="283.29 166.06 285.5 167.47 282.56 172.1 294.95 179.98 293.39 182.44 280.99 174.56 278.06 179.18 275.85 177.77 283.29 166.06 283.29 166.06"></polygon><path class="cls-3" d="M288.88,160.16c-.7,1.56-.58,2.84.48,3.32,3.45,1.55,5.45-7.8,11.12-5.22,2.81,1.27,3.43,4.54,1.87,8a10.63,10.63,0,0,1-5.41,5.31l-1.78-2.18a9.16,9.16,0,0,0,4.71-4.31c.83-1.84.63-3.26-.59-3.81-3.52-1.59-5.4,7.82-11,5.28-2.7-1.22-3.35-4.3-1.8-7.73a11.25,11.25,0,0,1,4.11-4.79l1.85,2.17a10.33,10.33,0,0,0-3.55,3.95Z"></path></g></g></svg>