<svg xmlns="http://www.w3.org/2000/svg" xmlns:xlink="http://www.w3.org/1999/xlink" x="0px" y="0px" viewBox="0 0 500 500" style="enable-background:new 0 0 500 500;" xml:space="preserve">
<style type="text/css">
	.st0{fill:none;stroke:url(#SVGID_1_);stroke-width:14;stroke-linecap:round;stroke-miterlimit:10;}
</style>
<g id="Calque_1">
</g>
<g id="Calque_2">
</g>
<g id="Calque_3">
	<linearGradient id="SVGID_1_" gradientUnits="userSpaceOnUse" x1="92.922" y1="399.1364" x2="390.9254" y2="101.133">
		<stop offset="0" style="stop-color:#FD00FF"></stop>
		<stop offset="1" style="stop-color:#0083FF"></stop>
	</linearGradient>
	<path class="st0" d="M272.72,258.13c-0.44,0.75-9.78,15.97-25.9,15.83c-15.5-0.14-27.08-14.39-28.78-28.06   c-2.07-16.71,10.91-30.15,22.3-35.25c25.19-11.29,52,13.95,54.68,16.55c4.04,3.92,20.51,20.93,19.43,46.77   c-0.99,23.5-15.83,38.45-20.15,42.45c-23.68,21.95-61.53,21.3-87.06,9.35c-41.3-19.33-62.7-74.03-46.77-118   c17.73-48.94,72.93-60.35,87.06-62.59c44.19-7.02,88.72,11.79,115.84,45.33c4.82,5.96,33.88,43.13,26.62,94.25   c-8.59,60.53-60.82,89.31-69.79,94.25c-59.86,32.99-120.38,8.5-130.23,4.32c-8.55-3.63-68.03-30.1-87.78-97.85   c-15.89-54.5,3.44-103.12,22.3-130.95c18.77-27.68,42.07-42.14,56.84-51.08c15.23-9.23,47.92-28.49,94.25-29.5   c9.74-0.21,57.32-0.43,105.04,31.66c13.91,9.35,51.05,37.06,70.51,89.22c5.81,15.58,20.66,61.79,4.32,116.56   c-16.69,55.95-55.62,86.22-74.83,100.73c-14.97,11.3-62.55,46.16-131.67,46.05C152,457.99,92.31,389.1,85.66,381.16   c-53.44-63.78-68.8-159.41-28.06-238.15C101.65,57.88,189,35.53,202.93,32.21"></path>
</g>
</svg>