<svg xmlns="http://www.w3.org/2000/svg" xmlns:xlink="http://www.w3.org/1999/xlink" id="Calque_4" x="0px" y="0px" viewBox="0 0 500 500" style="enable-background:new 0 0 500 500;" xml:space="preserve">
<style type="text/css">
	.st0{fill:#00D2E9;}
	.st1{fill:#0EBF00;}
	.st2{fill:url(#SVGID_1_);}
</style>
<g>
	<path class="st0" d="M98.7,82.24c-1.38-2.48-4.27-3.02-5.4-3.23c-4.31-0.8-7.71,1.64-8.46,2.21   c-16.39,18.5-34.71,43.72-48.63,75.77c0,0-14.61,33.62-17.15,79.81c-0.14,2.59,0.52,5.41,0.52,5.41c0.58,2.45,1.05,4.44,2.81,5.89   c1.75,1.43,4.71,2.28,7.42,1.02c2.67-1.24,4.3-4.16,4-7.26c-0.18-19.75,2.58-35.97,5.38-47.59c3.44-14.28,7.7-24.77,10.32-31.14   c8.66-21.06,18.25-35.74,21.78-40.96c6.14-9.09,14.64-20.19,26.08-31.72C99.49,87.87,100.01,84.6,98.7,82.24z"></path>
	<path class="st1" d="M401.3,82.24c1.38-2.48,4.27-3.02,5.4-3.23c4.31-0.8,7.71,1.64,8.46,2.21c16.39,18.5,34.71,43.72,48.63,75.77   c0,0,14.61,33.62,17.15,79.81c0.14,2.59-0.52,5.41-0.52,5.41c-0.58,2.45-1.05,4.44-2.82,5.89c-1.75,1.43-4.71,2.28-7.42,1.02   c-2.67-1.24-4.3-4.16-4-7.26c0.18-19.75-2.58-35.97-5.38-47.59c-3.44-14.28-7.7-24.77-10.32-31.14   c-8.66-21.06-18.25-35.74-21.78-40.96c-6.14-9.09-14.64-20.19-26.08-31.72C400.51,87.87,399.99,84.6,401.3,82.24z"></path>
	<linearGradient id="SVGID_1_" gradientUnits="userSpaceOnUse" x1="37.2489" y1="250" x2="463.0861" y2="250">
		<stop offset="0" style="stop-color:#00D2E9"></stop>
		<stop offset="0.4883" style="stop-color:#07C977"></stop>
		<stop offset="1" style="stop-color:#0EBF00"></stop>
	</linearGradient>
	<path class="st2" d="M463.08,332.6C463.08,332.6,463.09,332.6,463.08,332.6c0-0.01,0-0.01,0-0.01c0-0.01,0-0.02,0-0.03   c0-4.52-3.67-8.19-8.19-8.19H260.37v-31.45c70.6-4.38,126.51-63.02,126.51-134.73c0-74.56-60.44-135-135-135s-135,60.44-135,135   c0,71.91,56.22,130.68,127.11,134.77v31.41H45.44c-4.34,0-7.88,3.37-8.16,7.64c-0.02,0.23-0.03,0.42-0.03,0.53   c0,0.01,0,0.02,0,0.02c0,0,0,0.01,0,0.01c0,0,0,0.02,0,0.02c0,0,0,0,0,0c0.01,2.05,0.77,3.91,2.02,5.34   c2.6,6.6,6.2,14.68,11.18,23.52c34.78,61.81,110.47,114.39,197.56,115.33c89.54,0.97,173.32-52.83,213.6-137.17   c0.27-1.26,0.53-2.52,0.8-3.78C462.84,334.84,463.08,333.75,463.08,332.6z M133.1,158.73c0-65.96,53.48-119.44,119.44-119.44   s119.44,53.48,119.44,119.44c0,63.33-49.3,115.12-111.62,119.16v-69.71l65-62.47c2.93-2.81,3.02-7.47,0.21-10.39   c-2.81-2.93-7.47-3.02-10.39-0.21l-54.82,52.68V79.96c0-4.52-3.67-8.19-8.19-8.19s-8.19,3.67-8.19,8.19v108.61l-57.87-52.22   c-3.01-2.72-7.66-2.48-10.38,0.53c-2.72,3.01-2.48,7.66,0.53,10.38l67.72,61.1v69.47C182.02,273.44,133.1,221.81,133.1,158.73z    M350.17,437.17c-9.13,4.78-47.51,24-100.8,24.27c-40.43,0.21-70-10.6-77.12-13.31c-36.99-14.09-59.97-35.3-69.95-44.7   c-24.16-22.74-38.92-47.03-47.94-62.67h391.78c-4.37,7.53-9.74,15.95-16.28,24.8C416.52,383.62,392.97,414.78,350.17,437.17z"></path>
</g>
</svg>