<svg xmlns="http://www.w3.org/2000/svg" xmlns:xlink="http://www.w3.org/1999/xlink" id="Calque_3" x="0px" y="0px" viewBox="0 0 500 500" style="enable-background:new 0 0 500 500;" xml:space="preserve">
<style type="text/css">
	.st0{fill:none;stroke:url(#SVGID_1_);stroke-width:12;stroke-miterlimit:10;}
	.st1{fill:none;stroke:url(#SVGID_2_);stroke-width:12;stroke-miterlimit:10;}
	.st2{fill:none;stroke:#CC3300;stroke-width:12;stroke-miterlimit:10;}
	.st3{fill:none;stroke:#FDFF15;stroke-width:12;stroke-miterlimit:10;}
	.st4{fill:none;stroke:url(#SVGID_3_);stroke-width:12;stroke-miterlimit:10;}
	.st5{fill:none;stroke:url(#SVGID_4_);stroke-width:12;stroke-miterlimit:10;}
</style>
<linearGradient id="SVGID_1_" gradientUnits="userSpaceOnUse" x1="296.2877" y1="148.789" x2="363.6623" y2="148.789">
	<stop offset="0" style="stop-color:#FDFF15"></stop>
	<stop offset="1" style="stop-color:#CC3300"></stop>
</linearGradient>
<path class="st0" d="M298.73,148.03c4.48-1.99,13.38-7.01,18.03-8.76c4.65-1.75,9.37-3.38,14.17-4.87c4.8-1.49,9.66-2.86,14.6-4.08  c1.79,4.72,3.43,9.46,4.94,14.22c1.5,4.76,2.86,9.53,4.08,14.32c1.22,4.78,2.3,9.57,3.23,14.36"></path>
<linearGradient id="SVGID_2_" gradientUnits="userSpaceOnUse" x1="136.8094" y1="150.4934" x2="200.2347" y2="150.4934">
	<stop offset="0" style="stop-color:#FDFF15"></stop>
	<stop offset="1" style="stop-color:#CC3300"></stop>
</linearGradient>
<path class="st1" d="M142.68,177.61c1.01-4.8,2.18-14.95,3.48-19.74s2.76-9.57,4.37-14.33c1.6-4.76,3.36-9.5,5.26-14.22  c4.87,1.32,9.67,2.77,14.41,4.34c4.74,1.57,9.4,3.27,13.99,5.09c4.59,1.82,9.1,3.76,13.52,5.81"></path>
<path class="st2" d="M321.71,190.72c3.25-1.59,8.7-4.2,12.08-5.61c3.38-1.41,6.83-2.73,10.33-3.96c3.5-1.23,7.06-2.36,10.67-3.39  s7.27-1.97,10.98-2.79c3.71-0.83,7.46-1.56,11.25-2.18c1.06,3.67,2,7.34,2.84,11.02c0.84,3.68,1.57,7.36,2.19,11.04  c0.62,3.68,1.14,7.35,1.55,11.02s0.71,7.32,0.91,10.96c0.2,3.64,0.29,7.26,0.27,10.86c-0.01,3.6-0.13,7.18-0.36,10.73  c-0.22,3.55-0.55,7.07-0.98,10.55c-0.43,3.48-0.96,6.93-1.6,10.33c-0.64,3.4-1.38,6.76-2.22,10.07s-1.78,6.57-2.83,9.77  c-1.04,3.2-2.19,6.35-3.43,9.44s-2.59,6.11-4.03,9.06c-1.44,2.95-2.99,5.84-4.63,8.64c-1.64,2.81-3.38,5.54-5.22,8.19  c-1.84,2.65-3.77,5.21-5.8,7.69c-2.03,2.48-4.16,4.86-6.39,7.15c-1.25,1.29-2.58,2.6-3.98,3.91c-1.4,1.31-2.86,2.63-4.38,3.94  c-1.52,1.31-3.11,2.62-4.74,3.91s-3.32,2.56-5.05,3.81c-1.73,1.25-3.5,2.47-5.3,3.65s-3.65,2.33-5.51,3.43s-3.76,2.15-5.68,3.14  c-1.91,0.99-3.85,1.92-5.79,2.79c-1.94,0.86-3.9,1.66-5.85,2.37s-3.91,1.35-5.87,1.89c-1.95,0.54-3.9,1-5.83,1.35  c-1.93,0.35-3.85,0.6-5.75,0.74c-1.9,0.14-3.78,0.17-5.62,0.07c-1.85-0.1-3.66-0.31-5.44-0.66c-1.78-0.35-3.52-0.83-5.21-1.46"></path>
<path class="st3" d="M231.42,362.64c-1.78,0.46-3.61,0.79-5.47,0.99c-1.87,0.2-3.77,0.28-5.7,0.23c-1.93-0.04-3.9-0.2-5.88-0.46  c-1.98-0.26-3.99-0.63-6.01-1.09c-2.02-0.46-4.04-1.02-6.08-1.67c-2.03-0.64-4.07-1.37-6.09-2.18c-2.03-0.8-4.05-1.68-6.06-2.63  c-2.01-0.94-4-1.95-5.97-3.02c-1.97-1.06-3.91-2.18-5.82-3.35c-1.91-1.16-3.79-2.37-5.63-3.62s-3.63-2.52-5.38-3.83  s-3.44-2.63-5.07-3.97s-3.21-2.7-4.72-4.06c-1.51-1.36-2.94-2.73-4.3-4.09c-2.25-2.25-4.4-4.6-6.46-7.04  c-2.06-2.44-4.02-4.98-5.88-7.6c-1.86-2.62-3.63-5.33-5.29-8.12c-1.67-2.79-3.23-5.66-4.7-8.6c-1.47-2.94-2.83-5.96-4.1-9.04  s-2.43-6.23-3.49-9.43s-2.02-6.47-2.88-9.79c-0.86-3.32-1.61-6.68-2.26-10.1c-0.65-3.41-1.19-6.87-1.63-10.36s-0.77-7.03-0.99-10.59  c-0.22-3.56-0.34-7.16-0.35-10.78c-0.01-3.62,0.09-7.26,0.3-10.92s0.52-7.33,0.95-11.02c0.43-3.69,0.97-7.38,1.61-11.08  c0.65-3.7,1.41-7.4,2.28-11.1s1.86-7.39,2.96-11.07c3.76,0.65,7.48,1.41,11.15,2.26c3.68,0.85,7.31,1.81,10.89,2.85  c3.58,1.05,7.11,2.19,10.59,3.42c3.48,1.23,6.9,2.56,10.26,3.97c3.36,1.41,6.66,2.92,9.89,4.5"></path>
<linearGradient id="SVGID_3_" gradientUnits="userSpaceOnUse" x1="162.1216" y1="224.8784" x2="334.2502" y2="224.8784">
	<stop offset="0" style="stop-color:#FDFF15"></stop>
	<stop offset="1" style="stop-color:#CC3300"></stop>
</linearGradient>
<path class="st4" d="M324.75,276.34c-8.07,36.56-34.98,90.91-73.98,92.11c-39.62,1.22-69.84-53.09-78.89-92.11  c-14.97-64.5,15.56-140.43,76.73-193.08C308.6,136.32,339.07,211.44,324.75,276.34z"></path>
<linearGradient id="SVGID_4_" gradientUnits="userSpaceOnUse" x1="193.1216" y1="278.2042" x2="303.6301" y2="278.2042">
	<stop offset="0" style="stop-color:#FDFF15"></stop>
	<stop offset="1" style="stop-color:#CC3300"></stop>
</linearGradient>
<path class="st5" d="M295.48,310.81c-4.96,22.89-21.52,56.9-45.51,57.65c-24.38,0.76-42.96-33.23-48.53-57.65  c-9.21-40.37,9.57-87.9,47.2-120.86C285.54,223.17,304.29,270.19,295.48,310.81z"></path>
</svg>