<svg xmlns="http://www.w3.org/2000/svg" xmlns:xlink="http://www.w3.org/1999/xlink" id="Calque_3" x="0px" y="0px" viewBox="0 0 500 500" style="enable-background:new 0 0 500 500;" xml:space="preserve">
<style type="text/css">
	.st0{fill:none;stroke:url(#SVGID_1_);stroke-width:12;stroke-miterlimit:10;}
	.st1{fill:none;stroke:url(#SVGID_2_);stroke-width:12;stroke-miterlimit:10;}
	.st2{fill:none;stroke:#CC3300;stroke-width:12;stroke-miterlimit:10;}
	.st3{fill:none;stroke:#FDFF15;stroke-width:12;stroke-miterlimit:10;}
	.st4{fill:none;stroke:url(#SVGID_3_);stroke-width:12;stroke-miterlimit:10;}
	.st5{fill:none;stroke:url(#SVGID_4_);stroke-width:12;stroke-miterlimit:10;}
</style>
<linearGradient id="SVGID_1_" gradientUnits="userSpaceOnUse" x1="326.405" y1="127.1236" x2="430.2756" y2="127.1236">
	<stop offset="0" style="stop-color:#FDFF15"></stop>
	<stop offset="1" style="stop-color:#CC3300"></stop>
</linearGradient>
<path class="st0" d="M328.84,124.06c7.25-3.23,21.65-11.34,29.17-14.17c7.52-2.83,15.17-5.46,22.93-7.88  c7.76-2.42,15.64-4.62,23.62-6.61c2.89,7.63,5.56,15.31,7.99,23.01s4.63,15.43,6.61,23.16c1.97,7.74,3.72,15.49,5.23,23.24"></path>
<linearGradient id="SVGID_2_" gradientUnits="userSpaceOnUse" x1="70.4763" y1="129.8771" x2="167.9162" y2="129.8771">
	<stop offset="0" style="stop-color:#FDFF15"></stop>
	<stop offset="1" style="stop-color:#CC3300"></stop>
</linearGradient>
<path class="st1" d="M76.35,171.92c1.64-7.77,3.52-24.19,5.64-31.94c2.12-7.75,4.47-15.49,7.07-23.19c2.59-7.7,5.43-15.38,8.5-23  c7.88,2.13,15.65,4.48,23.32,7.03s15.21,5.3,22.63,8.24s14.72,6.08,21.88,9.4"></path>
<path class="st2" d="M366.03,193.12c5.26-2.57,14.08-6.8,19.55-9.08s11.04-4.42,16.71-6.41c5.67-1.98,11.42-3.81,17.27-5.48  s11.77-3.18,17.76-4.52c6-1.34,12.07-2.52,18.21-3.52c1.71,5.93,3.24,11.88,4.6,17.83c1.36,5.95,2.54,11.91,3.55,17.86  c1.01,5.95,1.84,11.9,2.51,17.83c0.66,5.93,1.15,11.85,1.47,17.74s0.47,11.75,0.44,17.58c-0.02,5.83-0.21,11.61-0.58,17.35  c-0.36,5.74-0.89,11.43-1.59,17.07c-0.7,5.63-1.56,11.21-2.59,16.71c-1.03,5.51-2.23,10.94-3.59,16.3s-2.89,10.63-4.57,15.81  c-1.69,5.18-3.54,10.28-5.55,15.27c-2.01,4.99-4.19,9.88-6.52,14.66c-2.34,4.78-4.83,9.44-7.49,13.98  c-2.66,4.54-5.47,8.96-8.44,13.24s-6.1,8.44-9.39,12.44c-3.29,4.01-6.73,7.87-10.33,11.57c-2.03,2.09-4.18,4.2-6.44,6.32  c-2.26,2.12-4.63,4.25-7.09,6.37c-2.46,2.12-5.02,4.24-7.67,6.32c-2.64,2.09-5.37,4.15-8.17,6.17c-2.8,2.02-5.66,3.99-8.58,5.91  c-2.92,1.91-5.9,3.77-8.92,5.55c-3.02,1.78-6.09,3.48-9.18,5.08c-3.1,1.6-6.22,3.11-9.37,4.51c-3.14,1.4-6.3,2.68-9.47,3.84  c-3.17,1.16-6.33,2.18-9.49,3.06c-3.16,0.88-6.31,1.61-9.44,2.18s-6.24,0.98-9.31,1.2c-3.07,0.23-6.11,0.27-9.1,0.11  s-5.93-0.51-8.81-1.07c-2.88-0.57-5.7-1.35-8.44-2.37"></path>
<path class="st3" d="M219.94,471.31c-2.88,0.75-5.84,1.28-8.85,1.6c-3.02,0.32-6.1,0.45-9.23,0.38s-6.31-0.32-9.52-0.74  s-6.45-1.02-9.72-1.77c-3.26-0.75-6.54-1.65-9.83-2.69c-3.29-1.04-6.58-2.22-9.86-3.52c-3.28-1.3-6.55-2.72-9.8-4.25  s-6.47-3.16-9.65-4.88c-3.18-1.72-6.33-3.53-9.42-5.42c-3.09-1.88-6.13-3.84-9.1-5.85c-2.97-2.01-5.88-4.08-8.7-6.19  c-2.82-2.11-5.56-4.26-8.21-6.43c-2.64-2.17-5.19-4.37-7.63-6.57c-2.44-2.2-4.76-4.41-6.96-6.62c-3.64-3.64-7.12-7.44-10.45-11.4  s-6.5-8.06-9.51-12.31s-5.87-8.63-8.57-13.15c-2.7-4.51-5.23-9.16-7.61-13.92c-2.37-4.76-4.59-9.64-6.63-14.63  c-2.05-4.99-3.93-10.08-5.65-15.26c-1.72-5.19-3.27-10.47-4.66-15.83c-1.39-5.37-2.6-10.81-3.65-16.34  c-1.05-5.52-1.93-11.12-2.64-16.77c-0.71-5.65-1.24-11.37-1.61-17.14c-0.36-5.77-0.55-11.58-0.57-17.44  c-0.02-5.85,0.14-11.75,0.48-17.67c0.34-5.92,0.85-11.87,1.54-17.83c0.69-5.96,1.56-11.94,2.61-17.93s2.28-11.97,3.7-17.95  s3.01-11.96,4.79-17.91c6.08,1.05,12.1,2.28,18.05,3.66s11.82,2.92,17.62,4.62s11.51,3.54,17.13,5.54c5.62,2,11.16,4.14,16.6,6.43  c5.44,2.29,10.77,4.72,16,7.28"></path>
<linearGradient id="SVGID_3_" gradientUnits="userSpaceOnUse" x1="111.5137" y1="249.0084" x2="382.6154" y2="249.0084">
	<stop offset="0" style="stop-color:#FDFF15"></stop>
	<stop offset="1" style="stop-color:#CC3300"></stop>
</linearGradient>
<path class="st4" d="M370.96,331.67c-13.05,59.16-56.6,147.1-119.71,149.03c-64.11,1.97-113-85.91-127.65-149.03  C99.38,227.3,148.77,104.44,247.75,19.24C344.83,105.11,394.12,226.66,370.96,331.67z"></path>
<linearGradient id="SVGID_4_" gradientUnits="userSpaceOnUse" x1="161.6743" y1="335.3127" x2="333.0696" y2="335.3127">
	<stop offset="0" style="stop-color:#FDFF15"></stop>
	<stop offset="1" style="stop-color:#CC3300"></stop>
</linearGradient>
<path class="st5" d="M323.59,387.45c-8.03,37.03-34.82,92.07-73.64,93.29c-39.44,1.23-69.52-53.78-78.53-93.29  c-14.9-65.33,15.49-142.23,76.38-195.56C307.51,245.64,337.84,321.72,323.59,387.45z"></path>
</svg>